<svg enable-background="new 0 0 2850 1800" version="1.1" viewBox="0 0 2850 1800" xml:space="preserve" xmlns="http://www.w3.org/2000/svg"><defs><linearGradient id="SVGID_1_" x1="1425" x2="1425" y1="4.6407" y2="1804.6" gradientUnits="userSpaceOnUse">
		<stop stop-color="#7C4A74" offset="0"/>
		<stop stop-color="#FA798D" offset="1"/>
	</linearGradient>
</defs><g id="g0.0"><rect width="2850" height="1800" fill="url(#SVGID_1_)"/><circle cx="1409.8" cy="990.67" r="597.05" fill="#e5edd4" opacity=".08"/><circle cx="1409.8" cy="990.67" r="429.67" fill="#e5edd4" opacity=".08"/><circle cx="1409.8" cy="990.67" r="316.81" fill="#fff"/><path d="m1707.5 264.5c.588-1.213.61-2.531-.232-3.621-.65-.842-1.652-1.314-2.719-1.312-.903.002-1.843.357-2.477 1.008-1.051 1.079-1.134 2.629-.467 3.931.733 1.433 2.861 1.965 4.201 1.101 1.462-.943 1.885-2.668 1.101-4.201-.011-.021-.021-.042-.032-.063.103.244.206.489.309.733 0-.019-.01-.037-.011-.056v1.632c0-.016 0-.033.01-.049-.103.244-.206.489-.309.733.01-.014.016-.028.023-.042l-.48.621c.012-.012.025-.024.037-.036l-.621.48c.016-.01.032-.019.048-.029-.244.103-.489.206-.733.31.038-.018.078-.03.12-.036-.272.037-.544.073-.816.11.071-.008.131-.009.202-.002-.272-.037-.544-.073-.816-.11.042.006.082.017.12.034-.244-.103-.489-.206-.733-.31.016.009.032.018.049.028l-.621-.48c.013.012.025.023.038.035l-.48-.621c.01.014.016.028.024.042-.103-.244-.206-.489-.309-.733 0 .016.01.033.01.049v-1.632c0 .019-.01.038-.01.056.103-.244.206-.489.309-.733-.01.021-.021.042-.031.064-.365.752-.538 1.536-.31 2.366.196.712.747 1.484 1.411 1.835 1.376.726 3.453.441 4.2-1.102z" fill="#fff"/><path d="m1717.6 179.12c-.275.275-.551.55-.826.826-1.137 1.137-1.222 3.22 0 4.342 1.226 1.125 3.128 1.214 4.342 0l.826-.826c1.137-1.137 1.222-3.22 0-4.342-1.226-1.126-3.129-1.214-4.342 0z" fill="#fff"/><path d="m1757.5 137-.826-.826c-1.137-1.137-3.22-1.222-4.342 0-1.125 1.226-1.214 3.128 0 4.342l.826.826c1.137 1.137 3.22 1.222 4.342 0 1.126-1.225 1.214-3.128 0-4.342z" fill="#fff"/><path d="m1811.2 167.25v-.826c0-1.606-1.412-3.144-3.07-3.07-1.663.075-3.07 1.349-3.07 3.07v.826c0 1.606 1.412 3.144 3.07 3.07 1.663-.075 3.07-1.349 3.07-3.07z" fill="#fff"/><path d="m1760.8 334.04c-.028-.825-.056-1.649-.084-2.474-.055-1.603-1.373-3.146-3.07-3.07-1.617.072-3.129 1.351-3.07 3.07.028.825.056 1.649.084 2.474.055 1.603 1.373 3.146 3.07 3.07 1.616-.072 3.128-1.351 3.07-3.07z" fill="#fff"/><path d="m1726.9 381.41-.826-.826c-1.137-1.137-3.22-1.222-4.342 0-1.125 1.226-1.214 3.128 0 4.342l.826.826c1.137 1.137 3.22 1.222 4.342 0 1.125-1.226 1.214-3.129 0-4.342z" fill="#fff"/><path d="m1647.2 280.6h-.511c-3.951 0-3.958 6.14 0 6.14h.511c3.951 0 3.958-6.14 0-6.14h-.511c-3.951 0-3.958 6.14 0 6.14h.511c3.951 0 3.958-6.14 0-6.14z" fill="#fff"/><path d="m1576.1 280.6h-.826c-1.606 0-3.145 1.412-3.07 3.07.074 1.663 1.349 3.07 3.07 3.07h.826c1.606 0 3.144-1.412 3.07-3.07-.075-1.663-1.349-3.07-3.07-3.07z" fill="#fff"/><path d="m1575.9 355.51v-.511c0-3.951-6.14-3.958-6.14 0v.511c0 3.951 6.14 3.958 6.14 0v-.511c0-3.951-6.14-3.958-6.14 0v.511c0 3.951 6.14 3.958 6.14 0z" fill="#fff"/><path d="m1475.9 313.09.826-.826c1.137-1.137 1.222-3.22 0-4.342-1.226-1.125-3.128-1.214-4.342 0-.275.275-.551.55-.826.826-1.137 1.137-1.222 3.22 0 4.342 1.226 1.125 3.129 1.213 4.342 0z" fill="#fff"/><path d="m1421.7 255.36c3.951 0 3.958-6.14 0-6.14-3.951 0-3.958 6.14 0 6.14z" fill="#fff"/><path d="m1548.6 186.55c-.275-.275-.551-.55-.826-.826-1.137-1.137-3.22-1.222-4.342 0-1.125 1.226-1.214 3.128 0 4.342.275.275.551.55.826.826 1.137 1.137 3.22 1.222 4.342 0 1.125-1.226 1.213-3.129 0-4.342z" fill="#fff"/><path d="m1397 378.03h-.826c-1.606 0-3.144 1.412-3.07 3.07.074 1.663 1.349 3.07 3.07 3.07h.826c1.606 0 3.145-1.412 3.07-3.07-.074-1.663-1.349-3.07-3.07-3.07z" fill="#fff"/><path d="m1527.4 463.9h-.826c-1.606 0-3.145 1.412-3.07 3.07.074 1.663 1.349 3.07 3.07 3.07h.826c1.606 0 3.144-1.412 3.07-3.07-.074-1.663-1.349-3.07-3.07-3.07z" fill="#fff"/><path d="m1929.6 523.28h-1.617c-1.606 0-3.144 1.412-3.07 3.07.075 1.663 1.349 3.07 3.07 3.07h1.617c1.606 0 3.145-1.412 3.07-3.07-.074-1.663-1.348-3.07-3.07-3.07z" fill="#fff"/><path d="m2096.1 422.67c3.951 0 3.958-6.14 0-6.14-3.951-.001-3.957 6.14 0 6.14z" fill="#fff"/><path d="m2272.5 427.72c-.533-.058-1.065-.117-1.598-.175-.732-.08-1.672.401-2.171.899-.532.533-.934 1.406-.899 2.171.036.794.296 1.618.899 2.171.636.584 1.316.805 2.171.899.533.058 1.065.117 1.598.175.732.08 1.672-.401 2.171-.899.532-.533.934-1.406.899-2.171-.035-.794-.296-1.618-.899-2.171-.636-.584-1.316-.805-2.171-.899z" fill="#fff"/><path d="m1915 253.17h-.89c-3.951 0-3.958 6.14 0 6.14h.89c3.951.001 3.958-6.14 0-6.14h-.89c-3.951 0-3.958 6.14 0 6.14h.89c3.951.001 3.958-6.14 0-6.14z" fill="#fff"/><path d="m2039.5 227.3h-.89c-3.951 0-3.958 6.14 0 6.14h.89c3.951.001 3.957-6.14 0-6.14h-.89c-3.951 0-3.958 6.14 0 6.14h.89c3.951.001 3.957-6.14 0-6.14z" fill="#fff"/><path d="m1880 79.395-1.617-1.617c-1.137-1.137-3.22-1.222-4.342 0-1.125 1.226-1.214 3.128 0 4.342l1.617 1.617c1.137 1.137 3.22 1.222 4.342 0 1.125-1.226 1.214-3.129 0-4.342z" fill="#fff"/><path d="m1939.3 71.697c3.951 0 3.958-6.14 0-6.14-3.951-.001-3.958 6.14 0 6.14z" fill="#fff"/><path d="m1816.3 92.723c3.951 0 3.958-6.14 0-6.14-3.951-.001-3.957 6.14 0 6.14z" fill="#fff"/><path d="m1853.5 7.001c3.951 0 3.958-6.14 0-6.14-3.951 0-3.957 6.14 0 6.14z" fill="#fff"/><path d="m1929.6 31.591h-1.617c-1.606 0-3.144 1.412-3.07 3.07.075 1.663 1.349 3.07 3.07 3.07h1.617c1.606 0 3.145-1.412 3.07-3.07-.074-1.663-1.348-3.07-3.07-3.07z" fill="#fff"/><path d="m2022.8 37.343-1.617 1.617c-1.137 1.137-1.222 3.22 0 4.342 1.226 1.125 3.128 1.214 4.342 0l1.617-1.617c1.137-1.137 1.222-3.22 0-4.342-1.225-1.125-3.128-1.214-4.342 0z" fill="#fff"/><path d="m2060.4 94.505v-1.617c0-1.606-1.412-3.144-3.07-3.07-1.664.075-3.07 1.349-3.07 3.07v1.617c0 1.606 1.412 3.144 3.07 3.07 1.663-.075 3.07-1.349 3.07-3.07z" fill="#fff"/><path d="m2092.7 143.03v-.89c0-3.951-6.141-3.958-6.141 0v.89c0 3.951 6.141 3.958 6.141 0v-.89c0-3.951-6.141-3.958-6.141 0v.89c0 3.951 6.141 3.958 6.141 0z" fill="#fff"/><path d="m2190 8.948h-1.617c-1.606 0-3.145 1.412-3.07 3.07.075 1.663 1.349 3.07 3.07 3.07h1.617c1.606 0 3.144-1.412 3.07-3.07-.075-1.663-1.349-3.07-3.07-3.07z" fill="#fff"/><path d="m2266 5.384c3.951 0 3.958-6.14 0-6.14-3.951 0-3.958 6.14 0 6.14z" fill="#fff"/><path d="m2266 120.55h-1.617c-1.606 0-3.144 1.412-3.07 3.07.074 1.663 1.349 3.07 3.07 3.07h1.617c1.606 0 3.145-1.412 3.07-3.07-.074-1.664-1.349-3.07-3.07-3.07z" fill="#fff"/><path d="m2490.8 17.035h-.89c-3.951 0-3.958 6.14 0 6.14h.89c3.951 0 3.957-6.14 0-6.14h-.89c-3.951 0-3.958 6.14 0 6.14h.89c3.951 0 3.957-6.14 0-6.14z" fill="#fff"/><path d="m2569.9 58.922v-1.617c0-1.606-1.412-3.144-3.07-3.07-1.663.075-3.07 1.349-3.07 3.07v1.617c0 1.606 1.412 3.144 3.07 3.07 1.663-.074 3.07-1.349 3.07-3.07z" fill="#fff"/><path d="m2642.8 351.55c-.052.01-.104.011-.156.004.272.037.544.073.816.11-.023-.005-.046-.011-.069-.016.245.103.489.206.733.309-.043-.014-.082-.036-.118-.064l.621.48c-.036-.028-.067-.061-.093-.099l.48.621c-.027-.039-.05-.081-.068-.126.103.244.206.489.31.733-.026-.075-.043-.143-.055-.222.037.272.073.544.11.816-.01-.082-.01-.156 0-.238-.036.272-.073.544-.11.816.012-.08.028-.15.053-.227-.103.244-.206.489-.31.733.03-.071.061-.127.106-.189l-.48.621c.029-.035.062-.066.1-.092-.207.16-.414.32-.622.48.02-.011.039-.022.058-.033-.244.103-.489.206-.733.31.042-.019.087-.03.133-.034-.272.037-.544.073-.816.11.025 0 .05.001.075.001-.272-.037-.544-.073-.816-.11.027.005.054.009.081.014.833.145 1.612.132 2.366-.309.637-.373 1.244-1.103 1.411-1.835.34-1.492-.452-3.483-2.145-3.777-1.251-.217-2.443-.049-3.387.883-.696.687-1.111 1.699-1.108 2.677 0 .891.239 1.699.785 2.406.654.846 1.732 1.497 2.846 1.385.834-.084 1.558-.286 2.171-.899.532-.533.934-1.406.899-2.171-.066-1.523-1.357-3.241-3.068-3.068z" fill="#fff"/><path d="m2480.8 478.62c-.027-.087-.038-.24-.084-.315.237.377.054.677.079.251.022-.385-.039.719-.03.336.01-.4.379-.117-.104.2.029-.019.165-.246.168-.281 0 .06-.456.566-.167.246.335-.372-.479.287-.174.132.31-.158-.777.265-.213.081 1.524-.497 2.672-2.148 2.145-3.777-.493-1.522-2.142-2.678-3.777-2.144-2.833.925-4.673 3.961-3.762 6.903.474 1.532 2.164 2.666 3.777 2.144 1.54-.498 2.651-2.133 2.142-3.776z" fill="#fff"/><path d="m2596.8 573.4c-.541-1.077-1.082-2.154-1.624-3.232-.722-1.438-2.868-1.961-4.2-1.101-1.47.948-1.874 2.662-1.102 4.201.541 1.077 1.082 2.154 1.624 3.232.722 1.438 2.868 1.961 4.2 1.101 1.47-.949 1.874-2.663 1.102-4.201z" fill="#fff"/><path d="m2744.6 508.56v-1.617c0-1.606-1.412-3.144-3.07-3.07-1.664.075-3.07 1.349-3.07 3.07v1.617c0 1.606 1.412 3.144 3.07 3.07 1.663-.074 3.07-1.349 3.07-3.07z" fill="#fff"/><path d="m2746.2 658.97v-1.617c0-1.606-1.412-3.144-3.07-3.07-1.663.075-3.07 1.349-3.07 3.07v1.617c0 1.606 1.412 3.144 3.07 3.07 1.664-.074 3.07-1.349 3.07-3.07z" fill="#fff"/><path d="m2393.6 709.11v-1.617c0-1.606-1.412-3.144-3.07-3.07-1.663.074-3.07 1.349-3.07 3.07v1.617c0 1.606 1.412 3.144 3.07 3.07 1.663-.074 3.07-1.349 3.07-3.07z" fill="#fff"/><path d="m1905.1 730.14v-1.617c0-1.606-1.412-3.144-3.07-3.07-1.663.075-3.07 1.349-3.07 3.07v1.617c0 1.606 1.412 3.144 3.07 3.07 1.663-.074 3.07-1.349 3.07-3.07z" fill="#fff"/><path d="m1591.5 632.93c3.951 0 3.958-6.14 0-6.14-3.951 0-3.957 6.14 0 6.14z" fill="#fff"/><path d="m1392.4 587.81v-1.617c0-1.606-1.412-3.144-3.07-3.07-1.663.074-3.07 1.349-3.07 3.07v1.617c0 1.606 1.412 3.144 3.07 3.07 1.664-.074 3.07-1.349 3.07-3.07z" fill="#fff"/><path d="m1061 642.63c3.951 0 3.958-6.14 0-6.14-3.951 0-3.958 6.14 0 6.14z" fill="#fff"/><path d="m955.34 467.57-1.617 1.617c-1.137 1.137-1.222 3.22 0 4.342 1.226 1.125 3.128 1.214 4.342 0l1.617-1.617c1.137-1.137 1.222-3.22 0-4.342-1.226-1.125-3.129-1.214-4.342 0z" fill="#fff"/><path d="m975.3 371.24h-1.617c-1.606 0-3.144 1.412-3.07 3.07.075 1.663 1.349 3.07 3.07 3.07h1.617c1.606 0 3.144-1.412 3.07-3.07-.074-1.664-1.349-3.07-3.07-3.07z" fill="#fff"/><path d="m1200.1 304.6c3.951 0 3.958-6.14 0-6.14-3.951-.001-3.958 6.14 0 6.14z" fill="#fff"/><path d="m958.57 181.29-1.617 1.617c-1.137 1.137-1.222 3.22 0 4.342 1.226 1.125 3.128 1.214 4.342 0l1.617-1.617c1.137-1.137 1.222-3.22 0-4.342-1.226-1.125-3.129-1.213-4.342 0z" fill="#fff"/><path d="m951.04 93.052h-.89c-3.951 0-3.958 6.14 0 6.14h.89c3.951 0 3.958-6.14 0-6.14h-.89c-3.951 0-3.958 6.14 0 6.14h.89c3.951 0 3.958-6.14 0-6.14z" fill="#fff"/><path d="m684.17 120.55h-1.617c-1.606 0-3.144 1.412-3.07 3.07.075 1.663 1.349 3.07 3.07 3.07h1.617c1.606 0 3.144-1.412 3.07-3.07-.074-1.664-1.348-3.07-3.07-3.07z" fill="#fff"/><path d="m723.15 44.366v.89c0 3.951 6.14 3.958 6.14 0v-.89c.001-3.951-6.14-3.958-6.14 0v.89c0 3.951 6.14 3.958 6.14 0v-.89c.001-3.951-6.14-3.958-6.14 0z" fill="#fff"/><path d="m682.25 390.5c-.058-.533-.117-1.065-.175-1.598-.092-.838-.281-1.553-.899-2.171-.532-.533-1.406-.934-2.171-.899-.794.036-1.618.296-2.171.899-.516.562-.986 1.378-.899 2.171.058.533.117 1.065.175 1.598.092.838.281 1.553.899 2.171.533.533 1.406.934 2.171.899.794-.036 1.618-.296 2.171-.899.516-.562.986-1.378.899-2.171z" fill="#fff"/><path d="m478.76 37.732h3.235c1.606 0 3.144-1.412 3.07-3.07-.075-1.663-1.349-3.07-3.07-3.07h-3.235c-1.606 0-3.144 1.412-3.07 3.07.074 1.663 1.349 3.07 3.07 3.07z" fill="#fff"/><path d="m226.45 91.105h1.617c1.606 0 3.144-1.412 3.07-3.07-.074-1.663-1.349-3.07-3.07-3.07h-1.617c-1.606 0-3.144 1.412-3.07 3.07.074 1.664 1.349 3.07 3.07 3.07z" fill="#fff"/><path d="m271.73 274.11c-.386.015.539.1.516.095-.357-.088.512.238.475.22-.359-.18.591.531.374.295-.205-.223.479.667.312.408-.267-.414.257.787.123.296-.133-.486.034.906.038.27 0-.016.01-.202.009-.202.015.003-.139.871-.061.52.124-.561-.29.548-.136.287.185-.314-.348.43-.32.4.274-.296-.595.41-.381.285.246-.144-.764.288-.483.208.236-.068-.915.067-.471.082 1.607.056 3.143-1.452 3.07-3.07-.077-1.712-1.349-3.01-3.07-3.07-2.519-.088-4.301 2.183-4.296 4.562.005 2.373 1.779 4.655 4.302 4.557 1.603-.062 3.146-1.368 3.07-3.07-.073-1.612-1.352-3.139-3.071-3.073z" fill="#fff"/><path d="m54.839 434.16v-1.617c0-1.606-1.412-3.144-3.07-3.07-1.663.074-3.07 1.349-3.07 3.07v1.617c0 1.606 1.412 3.144 3.07 3.07 1.663-.074 3.07-1.349 3.07-3.07z" fill="#fff"/><path d="m162.3 566.23-1.617-1.617c-1.137-1.137-3.22-1.222-4.342 0-1.125 1.226-1.214 3.128 0 4.342l1.617 1.617c1.137 1.137 3.22 1.222 4.342 0 1.125-1.225 1.213-3.128 0-4.342z" fill="#fff"/><path d="m93.06 731.6c.547-1.074 1.095-2.148 1.642-3.222.728-1.43.422-3.396-1.101-4.201-1.401-.74-3.422-.426-4.201 1.101-.547 1.074-1.095 2.148-1.642 3.222-.728 1.43-.422 3.396 1.101 4.201 1.401.741 3.423.427 4.201-1.101z" fill="#fff"/><path d="m294.93 868.68-1.617-1.617c-1.137-1.137-3.22-1.222-4.342 0-1.125 1.226-1.214 3.128 0 4.342l1.617 1.617c1.137 1.137 3.22 1.222 4.342 0 1.125-1.226 1.213-3.129 0-4.342z" fill="#fff"/><path d="m517.41 613.69v-1.617c0-1.606-1.412-3.144-3.07-3.07-1.663.075-3.07 1.349-3.07 3.07v1.617c0 1.606 1.412 3.144 3.07 3.07 1.663-.074 3.07-1.349 3.07-3.07z" fill="#fff"/><path d="m663.14 636.16c3.951 0 3.958-6.14 0-6.14-3.951-.001-3.957 6.14 0 6.14z" fill="#fff"/><path d="m1230.3 100.78h-3.937c-3.951 0-3.958 6.14 0 6.14h3.937c3.951 0 3.957-6.14 0-6.14h-3.937c-3.951 0-3.958 6.14 0 6.14h3.937c3.951 0 3.957-6.14 0-6.14z" fill="#fff"/><path d="m1481.3 65.696v-6.359c0-3.951-6.14-3.958-6.14 0v6.359c-.001 3.951 6.14 3.957 6.14 0z" fill="#fff"/><path d="m1339.2 189.36c-2.078-.294-4.156-.587-6.234-.881-1.64-.232-3.298.401-3.777 2.144-.395 1.438.492 3.543 2.144 3.777 2.078.293 4.156.587 6.234.88 1.64.232 3.298-.401 3.777-2.144.396-1.438-.491-3.543-2.144-3.776z" fill="#fff"/><path d="m1588.5 74.225c2.12-2.119 4.239-4.239 6.359-6.359 2.798-2.798-1.543-7.141-4.342-4.342-2.12 2.119-4.239 4.239-6.359 6.359-2.798 2.798 1.543 7.141 4.342 4.342z" fill="#fff"/><path d="m642.34 589.83c-20.96-18.894-55.508-20.38-78.013-3.355 11.931-32.422-3.462-70.679-30.764-91.848s-63.884-27.295-98.285-24.121c-74.437 6.868-143.33 56.882-172.92 125.53-20.809-19.256-53.495-24.414-79.222-12.5s-42.936 40.177-41.711 68.502l512.31 15.039c14.606-24.143 9.556-58.353-11.404-77.247z" fill="#fff" opacity=".11"/><path d="m2073.8 561.49c-19.895-11.098-47.225-6.48-62.37 10.538 3.773-57.847-48.954-110.83-106.82-114.32s-113.47 36.978-135.32 90.674c-33.831-26.523-91.468-11.023-107.43 28.891-10.972-18.167-38.062-20.801-56.608-10.483s-29.999 29.81-38.509 49.253l530.86 4.053c6.525-21.827-3.904-47.507-23.8-58.605z" fill="#fff" opacity=".11"/><path d="m1889.2 236.05c-17.031-10.021-40.17-8.384-55.62 3.935-3.713-49.583-51.873-91.448-101.49-88.224-48.646 3.16-86.568 41.661-119.46 77.636-13.891-22.754-43.852-32.13-70.079-27.343-26.226 4.787-48.937 21.351-67.331 40.648-8.153-12.141-27.052-12.355-39.305-4.371s-19.449 21.581-26.129 34.591l502.99 13.661c3.265-19.489-6.541-40.511-23.571-50.533z" fill="#fff" opacity=".11"/><path d="m2540.6 352.63c-13.082-3.248-27.083 1.928-37.661 10.283 7.79-23.822-7.246-51.192-29.824-62.072s-50.093-7.431-72.47 3.856c-22.377 11.288-40.416 29.552-56.734 48.575-3.906-16.947-25.848-24.184-42.374-18.767s-28.604 19.318-39.813 32.615l299.71 15.474c2.985-13.144-7.752-26.716-20.833-29.964z" fill="#fff" opacity=".11"/><path d="m2695.1 724.84c-2.162-7.368-9.385-13.863-16.925-12.411-5.677 1.093-11.103 6.31-16.4 3.994-.036-19.817-2.022-43.258-19.061-53.378-16.548-9.828-38.212-.858-52.486 12.052-12.451 11.261-22.215 25.474-28.26 41.137-10.855-9.642-31.406-1.891-33.19 12.517l165.34 18.857c1.574-7.516 3.138-15.4.977-22.768z" fill="#fff" opacity=".11"/><path d="m732.02 230.99c-18.294-6.876-41.247 4.999-46.203 23.904-4.871-39.41-13.936-85.059-49.47-102.78-29.271-14.601-65.896-2.889-90.695 18.441s-40.95 50.677-59.074 77.906c-1.378 2.071-2.961 4.276-5.35 4.97-5.487 1.593-9.167-5.232-13.149-9.329-8.634-8.886-24.686-5.158-32.718 4.276s-10.191 22.378-12.046 34.629l327.72-3.594c8.723-17.489-.726-41.543-19.019-48.419z" fill="#fff" opacity=".11"/></g><g id="g0.2" fill="#812e52"><path d="m1106.9 737.47c7.239-6.171 16.166-12.765 25.355-10.303 5.082 1.362 12.325 4.019 17.286 10.312 0 0 13.422-10 20.73-10.906s15.096 1.054 20.569 5.98c-4.964-2.723-11.137-1.604-16.462.32-9.856 3.561-18.779 9.668-25.668 17.566-3.798-6.463-8.132-13.387-15.177-15.949-8.854-3.217-18.454-1.694-26.633 2.98"/><path d="m1156.5 773.59c7.239-6.171 16.166-12.765 25.355-10.303 5.082 1.362 12.325 4.019 17.286 10.312 0 0 13.422-10 20.73-10.906s15.096 1.054 20.569 5.98c-4.964-2.723-11.137-1.604-16.462.32-9.856 3.561-18.779 9.668-25.668 17.566-3.798-6.463-8.132-13.387-15.177-15.949-8.854-3.218-18.454-1.695-26.633 2.98"/><path d="m1396.6 875.92c3.176-2.707 7.092-5.6 11.123-4.52 2.23.597 5.407 1.763 7.583 4.524 0 0 5.888-4.387 9.094-4.784s6.622.463 9.023 2.624c-2.178-1.195-4.886-.703-7.222.141-4.324 1.562-8.239 4.242-11.26 7.706-1.666-2.835-3.568-5.873-6.658-6.997-3.883-1.413-8.095-.744-11.683 1.306"/><path d="m1015 830.86c-3.336-24.556 21.695-26.905 26.655-20.612 0 0 16.318-15.555 33 16.475-18.017-13.079-26.943-11.411-33.831-3.514-3.798-6.462-13.813-10.499-25.824 7.651"/><path d="m1325.4 761.78c-3.336-24.556 21.869-23.255 26.829-16.962 0 0 16.144-19.204 32.826 12.825-18.017-13.079-26.943-11.411-33.831-3.514-3.798-6.463-13.812-10.5-25.824 7.651"/><path d="m1269.6 845.15c-.409-15.471 15.151-12.957 17.804-8.715 0 0 11.322-10.83 19.511 10.184-10.3-9.339-15.954-8.908-20.765-4.471-1.92-4.269-7.865-7.453-16.55 3.002"/><path d="m953.74 724.46c7.486-1.524 16.322-2.689 21.823 2.612 3.043 2.932 7.1 7.614 8.141 13.965 0 0 13.319-1.812 18.807.391s10.2 6.607 12.132 12.196c-2.43-3.843-7.204-5.455-11.694-6.172-8.311-1.327-16.955-.503-24.866 2.37-.158-6.018-.513-12.568-4.469-17.107-4.97-5.702-12.309-8.362-19.874-8.255"/><path d="m1401.6 805.12c3.481-3.822 7.844-7.987 12.966-7.288 2.833.387 6.92 1.324 10.024 4.378 0 0 6.553-6.309 10.431-7.297s8.211-.463 11.499 1.818c-2.862-1.129-6.114-.103-8.854 1.298-5.07 2.594-9.464 6.496-12.638 11.225-2.49-3.225-5.299-6.662-9.273-7.561-4.992-1.13-10.064.348-14.155 3.427"/></g><g id="g0.25"><path d="m2278.7 669.78c17.341-24.772 50.528-75.421 50.528-100.23 0-33.586-27.227-60.814-60.813-60.814-33.587 0-60.814 27.227-60.814 60.814 0 24.813 33.187 75.462 50.528 100.23z" fill="#631f3d"/><rect x="2257" y="681.96" width="22.065" height="14.359" fill="#631f3d"/><path d="m2091.1 783.95c12.051-17.215 35.115-52.414 35.115-69.658 0-23.341-18.922-42.263-42.263-42.263s-42.263 18.922-42.263 42.263c0 17.244 23.064 52.443 35.115 69.658z" fill="#812e52"/><rect x="2076.1" y="792.42" width="15.334" height="9.979" fill="#812e52"/></g><g id="g0.3"><path d="m2304.2 854.44c-86.218 31.25-166.13 113.84-225.01 120.54-58.881 6.696-92.526-78.125-180.85-49.107s-342.77 180.8-485.76 187.5-584.6-290.18-681.33-312.5c-80.531-18.583-314.26 71.521-390.3 102.23l-.014-.587c-35.242 13.707-71.025 26.034-107.24 36.943-37.727 11.365-78.787 21.115-115.88 7.849-45.161-16.151-73.293-62.465-117.06-82.043v531.59h2849.3v-283.37c0-.001-459.61-290.29-545.83-259.04z" fill="#812e52"/><path d="m143.82 953.04c-8.825-.881-17.531-2.7-26.027-5.739-45.161-16.151-73.293-62.465-117.06-82.043v32.495c43.772 19.578 71.903 65.892 117.06 82.043 8.497 3.039 155.41 13.051 164.23 13.932z" fill="#b34070"/><path d="m1898.3 925.86c-88.321 29.018-342.77 180.8-485.76 187.5-142.38 6.668-580.79-287.62-680.05-312.18 0 0 558.57 396.74 700.95 390.07 143-6.696 339.45-164.02 419.37-211.52 23.119-13.739 85.745-59.816 85.745-59.816-12.13-.577-25.418 1.074-40.254 5.949z" fill="#b34070"/><path d="m2304.2 854.44c-81.828 29.659-157.97 105.55-215.85 118.93 0 0 94.248-20.879 167.34-68.141 17.9-11.575 57.363-52.755 57.363-52.755-3.274.374-6.237 1.019-8.849 1.966z" fill="#b34070"/></g><g id="g0.5"><path d="m2493.3 1166.2c-13.86-2.397-28.014 1.286-41.367 5.706-107.21 35.488-203.43 121.21-315.88 110.78-112.95-10.469-213.23-118.04-322.52-87.663-40.359 11.216-77.384 41.065-118.96 35.92-14.056-1.74-27.265-7.469-40.938-11.163-68.658-18.549-139.23 15.018-204.17 44.002-64.945 28.984-142.1 53.789-204.66 19.969-18.812-10.169-36.252-25.595-57.614-26.583-23.371-1.08-47.428 15.624-68.802 6.109-10.825-4.819-17.837-15.323-24.018-25.433-22.765-37.234-42.83-76.9-73.603-107.84s-75.674-52.23-118-41.579c-26.725 6.726-52.38 25.624-79.155 19.102-17.409-4.241-30.366-18.395-42.202-31.847-32.395-36.82-64.79-73.641-97.185-110.46-8.488-9.647-17.462-19.641-29.46-24.24-14.506-5.56-30.78-2.251-45.74 1.938-81.451 22.81-153.92 69.197-230.56 104.98s-163.76 61.334-245.34 38.979c-56.064-15.363-91.953-55.426-132.37-97.209l-.725 177.61c0 73.096 29.359 127.84 80.445 166.39 38.216 28.833 90.739 25.951 138.52 22.976 276.29-17.204 553.26 6.532 830.01 12.982 201.8 4.703 403.68.21 605.49-4.283 226.46-5.042 452.91-10.084 679.36-15.126 43.441-.967 461.27 11.472 501.41-5.18s-149.13-73.148-188.88-113.65c-21.418-21.823-122.96-59.97-153.09-65.181z" fill="#75294a"/></g><g id="g0.75" fill="#672140"><path d="m-2.097 1471.1c24.995-49.224 70.367-84.931 117.63-113.46 206.37-124.54 466.96-136.58 699.72-73.962 126.67 34.077 249.83 90.409 345.08 180.6"/><path d="m941.68 1328.4c163.31 63.955 346.74 32.617 518.41-3.292s351.58-75.337 519.8-25.727c49.433 14.578 96.916 36.687 147.85 44.542 77.853 12.006 156.32-10.156 234.48-19.957 80.286-10.068 162.2-7.005 241.51 9.029 69.173 13.985 142.15 42.442 176.86 103.89 3.806 6.738 7.146 14.781 4.388 22.011-3.213 8.427-13.054 11.878-21.749 14.272-409.97 112.88-841.68 118.87-1266.4 98.019-144.79-7.108-289.94-17.31-432.03-46.018-37.43-7.562-75.962-17.037-105.86-40.795-29.896-23.757-48.665-65.683-34.475-101.14"/><path d="m282.02 1284.4c3.349-7.279 6.697-14.558 10.046-21.837.497-1.081 1.51-2.373 2.587-1.868.489.229.745.763.963 1.258 2.62 5.934 5.239 11.867 7.859 17.801 9.953-21.245 20.879-42.035 32.732-62.282 7.19 16.798 12.837 34.255 16.847 52.082 2.518-5.194 5.037-10.387 7.555-15.581.301-.621.627-1.271 1.201-1.655 2.011-1.344 4.147 1.538 4.867 3.847 1.025 3.285 2.05 6.569 3.075 9.854 3.046-6.608 6.092-13.217 9.138-19.825 2.846 5.708 4.666 11.926 5.346 18.267"/><path d="m626.39 1252.5c1.633-4.913 4.485-9.415 8.227-12.992 2.103 6.757 4.207 13.513 6.31 20.27 10.736-18.781 22.958-36.712 36.512-53.572 4.51 12.366 7.871 25.15 10.025 38.135 1.79-4.055 4.37-7.759 7.551-10.845 1.098 4.875 2.196 9.75 3.293 14.625 3.849-3.206 7.698-6.412 11.547-9.619 3.386 11.433 5.51 23.24 6.323 35.136 5.175-7.136 10.35-14.272 15.525-21.409 3.271 4.498 5.12 10.015 5.221 15.576 3.54-2.843 7.079-5.686 10.619-8.529 2.818 6.746 4.806 13.838 5.906 21.065"/><path d="m905.54 1312.9c2.202-7.756 5.193-15.288 8.911-22.442.525 8.947 2.151 17.828 4.829 26.381 1.762-4.772 4.119-9.324 7-13.517 4.38 6.528-1.477 17.482 4.721 22.319 4.909-16.495 11.2-32.578 18.785-48.026.883-1.799 2.825-3.904 4.475-2.766 4.036 22.591 6.858 45.399 8.449 68.293 4.037-8.667 8.075-17.335 12.112-26.002 2.097 8.934 3.617 18.004 4.545 27.133 3.255-4.885 6.51-9.769 9.765-14.654 1.598 7.009 2.16 14.253 1.661 21.424"/><path d="m1497.3 1320.7 16.815-3.483c-3.094-9.412-6.768-18.633-11.011-27.586-2.742 10.183-4.685 20.582-5.804 31.069z"/><path d="m1514.7 1318.9c.213-.657.418-1.316.63-1.973l-1.198.248c.189.575.383 1.149.568 1.725z"/><path d="m1569.4 1305.7 15.74-3.261c-1.44-8.011-3.783-15.86-6.969-23.351-3.032 8.486-6.064 16.971-9.096 25.457-4.155-14.992-9.382-29.687-15.649-43.926-2.271 8.859-4.366 17.762-6.309 26.698-3.562-11.791-7.643-23.425-12.229-34.856-6.157 21.595-12.698 43.081-19.602 64.449l31.57-6.54 21.124-3.729c.062.15.123.3.185.45.061-.172.123-.344.184-.515l1.235-.218c-.059-.219-.124-.438-.184-.658z"/><path d="m1672.6 1265.6c-.309-4.815-.574-10.277-4.256-13.395-2.504 6.534-4.865 13.122-7.096 19.753-1.329-9.679-2.266-19.412-2.777-29.168-.293-5.584-.545-11.484-3.582-16.179-2.701 13.254-5.403 26.508-8.104 39.762-1.897-6.308-4.423-12.351-8.423-17.542-5.258 16.302-10.517 32.604-15.775 48.906l55.145-5.661c-2.826-8.56-4.554-17.481-5.132-26.476z"/><path d="m1716 1261.9c-.165-1.558-1.097-3.65-2.576-3.134-.757.264-1.095 1.125-1.342 1.889-3.046 9.432-6.093 18.865-9.139 28.297-3.185-11.806-6.371-23.611-9.556-35.417-3.946 12.824-7.891 25.648-11.837 38.472l37.149-4.613c-.9-8.498-1.8-16.996-2.699-25.494z"/><path d="m1825.3 1285.7c.347-1.262.71-2.519 1.076-3.776l-1.62-.09c.166 1.29.335 2.58.544 3.866z"/><path d="m1821.7 1204.2c-8.317 25.362-16.634 50.723-24.95 76.085l28.028 1.554c-3.332-25.67 1.091-52.048-3.078-77.639z"/><path d="m1849.2 1255.4c-3.736 7.287-6.791 14.924-9.112 22.777-1.62-9.822-2.153-19.823-1.587-29.761-4.723 10.873-8.746 22.048-12.053 33.432l25.534 1.416c.154-9.354-.781-18.725-2.782-27.864z"/><path d="m1795.8 1251.6c-.231-7.786-.529-15.85-3.987-22.83-6.211 14.374-12.422 28.747-18.633 43.121-1.036-5.077-2.072-10.153-3.109-15.23-4.007 7.321-6.903 15.25-8.558 23.431l7.9.516c-.175.404-.349.809-.524 1.213l26.148.566c.279.171.579.314.925.383.039-.12.079-.24.118-.36l.635.014c-.018-.596-.035-1.191-.053-1.787.046-.141.092-.281.138-.422l-.151-.01c-.282-9.536-.566-19.071-.849-28.607z"/></g><g id="g0.9"><rect y="1396.8" width="2850" height="403.15" fill="#fa798d"/><path d="m1240.5 1622.4c-57.635 21.378-117.22 37.496-177.77 48.101-13.122 2.298-16.754 19.296-5.745 26.796 10.588 7.213 23.381 11.91 35.953 14.697 22.69 5.031 46.421 5.552 68.373 13.185 9.727 3.382 20.249 9.917 20.975 20.189-73.898 28.477-154.52 33.339-230.78 54.627l811.85-1.037c-3.249-7.204-10.919-13.69-18.333-17.497-71.925-36.929-165.1-10.26-235.17-50.61 40.917-10.985 81.833-21.97 122.75-32.956 9.115-2.447 20.169-7.241 20.269-16.678.105-9.999-12.042-14.781-21.845-16.753-66.899-13.462-134.48-23.51-202.41-30.094 43.873-8.384 87.745-16.767 131.62-25.151 8.935-1.707 20.437-7.096 18.248-15.925-1.683-6.791-10.285-8.64-17.248-9.322-46.847-4.585-93.083-15.376-137.12-32.003 16.906-16.098 46.53-15.47 66.739-24.717 9.189-4.204 6.24-18-3.862-18.219-34.831-.756-69.661-1.512-104.49-2.268-7.103-.154-16.738-2.813-15.33-10.408.586-3.159 2.975-5.684 6.004-6.753 24.005-8.468 48.01-16.935 72.015-25.403 3.764-1.328 6.367-4.984 6.002-8.958-.424-4.612-4.372-5.856-7.897-6.807-15.379-4.146-30.758-8.291-46.138-12.437.217-6.506 5.898-11.238 10.128-16.186 5.2-6.083 8.177-17.135-2.677-19.577-1.369-.308-2.785-.398-4.187-.349-24.727.861-25.013-.382-17.485-3.045h-63.843c-2.729 2.695-22.978 2.164-23.554 4.977-1.123 5.487 13.554 14.777 7.873 16.231-12.287 3.145-27.528 6.387-33.732 9.333-2.463 1.169-5.066 2.463-6.468 4.802-6.061 10.116 15.784 17.508 15.257 29.289-.357 7.984-10.313 11.188-18.228 12.294-10.805 1.511-21.61 3.021-32.416 4.532-11.888 1.662-27.433 7.39-23.145 20.959 2.607 8.248 11.072 12.94 19.639 11.746 11.24-1.566 33.37 7.255 26.803 20.502-1.301 2.624-3.51 4.703-6.136 6.002-21.07 10.426-44.086 16.895-67.5 18.992-11.305 1.012-26.772 5.542-25.036 16.758 1.565 10.112 15.364 11.321 25.596 11.256 24.374-.154 48.745 7.52 68.601 21.667 1.76 1.254 3.082 3.087 3.56 5.195 1.348 5.917-4.67 9.152-9.715 11.023z" fill="#fff" opacity=".5625"/><path d="m1477.7 1483.9c-13.467-1.287-27.036-.339-40.532.609h-.115c-3.787.2-3.757 5.865.026 6.124 1.792.123 3.593.173 5.382.206 11.954.221 24.129-.259 35.587-3.468 1.891-.53 1.674-3.281-.282-3.469-.021 0-.044-.01-.066-.01z" fill="#fff" opacity=".5625"/><path d="m1443.1 1424c-.117-.329-.507-.456-.847-.536-7.948-1.868-13.821-1.926-21.671-.197-3.142.604-6.487 1.6-7.259 2.996-.155.28-.271.639-.097.908.158.243.482.302.77.339 8.342 1.063 17.026 2.095 24.991-.602 1.31-.443 2.611-1 3.654-1.907.294-.258.589-.633.459-1.001z" fill="#fff" opacity=".5625"/><path d="m1626 1514.6c-2.831-1.56-6.79-3.785-10.021-3.869-15.41-.82-31.009 2.177-45.017 8.651-.683.316-1.468.801-1.45 1.553.02.829.979 1.256 1.778 1.477 12.589 3.484 25.744 4.913 38.786 4.212 5.983-.321 12.313-1.242 16.902-5.095 1.004-.843 1.96-1.951 1.956-3.261-.01-1.645-1.494-2.874-2.934-3.668z" fill="#fff" opacity=".5625"/><path d="m1700.9 1645.3c-.254-1.259-1.34-2.163-2.41-2.873-5.987-3.972-13.365-5.122-20.506-5.91-22.418-2.476-57.245-2.589-79.634.137h.245c-1.004.102-2.008.203-3.007.342-1.056.147-2.171.343-2.971 1.049-1.577 1.392-1.061 4.151.49 5.572 1.552 1.421 3.741 1.854 5.814 2.213 31.489 5.449 63.672 6.875 95.52 4.233 3.031-.251 7.061-1.777 6.459-4.758z" fill="#fff" opacity=".5625"/><path d="m1240.2 1436.7c-1.999-1.991-2.712-2.337-4.412-2.964-9.599-2.08-19.608-2.252-29.272-.503-1.859.336-3.921.894-4.858 2.534-1.012 1.773-.181 4.151 1.37 5.48s3.628 1.838 5.639 2.197c10.035 1.794 20.546.848 30.099-2.709 1.083-.403 2.333-1.082 2.365-2.237.019-.693-.438-1.308-.931-1.798z" fill="#fff" opacity=".5625"/><path d="m1125.2 1571.1-.01-.001c-.112-.016-.224-.031-.336-.028-22.671-1.941-44.499-3.517-66.761 1.231-1.662.354-3.471.824-4.457 2.208-1.386 1.945-.357 4.848 1.558 6.275 1.916 1.427 4.411 1.754 6.787 1.992 19.57 1.959 39.429 1.01 58.723-2.807 2.777-.549 5.92-1.447 7.104-4.018.906-1.967-.819-4.586-2.612-4.852z" fill="#fff" opacity=".5625"/><path d="m1127 1631c-.468-.707-1.363-.978-2.192-1.16-4.54-.998-7.288-.405-12.245-.521l.736.031c-5.59-.272-11.214.182-16.688 1.348-2.226.474-4.777 1.387-5.412 3.572-.946 3.254 3.072 5.672 6.4 6.313 9.336 1.797 19.339-.154 27.315-5.327 1.482-.961 3.061-2.783 2.086-4.256z" fill="#fff" opacity=".5625"/><path d="m962.5 1749.5c-6.975.813-14.645 2.009-18.991 7.662-.546.71-.941 1.558-.941 2.454.001 2.55 2.749 3.459 5.022 3.804 11.879 1.806 24 .477 35.886-1.284 27.953-4.14 55.553-10.656 82.405-19.456.572-.187 1.01-.653 1.162-1.235.31-1.179-.636-2.31-1.851-2.207-28.427 2.405-75.498 7.092-102.69 10.262z" fill="#fff" opacity=".5625"/><line x1="739.47" x2="824.2" y1="1466.9" y2="1466.9" fill="none" opacity=".42" stroke="#fff" stroke-linecap="round" stroke-miterlimit="10" stroke-width="4"/><line x1="937.64" x2="1258.5" y1="1466.9" y2="1466.9" fill="none" opacity=".42" stroke="#fff" stroke-linecap="round" stroke-miterlimit="10" stroke-width="4"/><line x1="1404.3" x2="1517.3" y1="1466.9" y2="1466.9" fill="none" opacity=".42" stroke="#fff" stroke-linecap="round" stroke-miterlimit="10" stroke-width="4"/><line x1="1686.7" x2="1882.9" y1="1466.9" y2="1466.9" fill="none" opacity=".42" stroke="#fff" stroke-linecap="round" stroke-miterlimit="10" stroke-width="4"/><line x1="2094.1" x2="2217.5" y1="1466.9" y2="1466.9" fill="none" opacity=".42" stroke="#fff" stroke-linecap="round" stroke-miterlimit="10" stroke-width="4"/><line x1="2297.7" x2="2336.3" y1="1466.9" y2="1466.9" fill="none" opacity=".42" stroke="#fff" stroke-linecap="round" stroke-miterlimit="10" stroke-width="4"/><line x1="373.95" x2="412.54" y1="1466.9" y2="1466.9" fill="none" opacity=".42" stroke="#fff" stroke-linecap="round" stroke-miterlimit="10" stroke-width="4"/><line x1="500.17" x2="638.79" y1="1466.9" y2="1466.9" fill="none" opacity=".42" stroke="#fff" stroke-linecap="round" stroke-miterlimit="10" stroke-width="4"/><line x1="595.09" x2="722.23" y1="1504.7" y2="1504.7" fill="none" opacity=".42" stroke="#fff" stroke-linecap="round" stroke-miterlimit="10" stroke-width="4"/><line x1="980.01" x2="1009.7" y1="1504.7" y2="1504.7" fill="none" opacity=".42" stroke="#fff" stroke-linecap="round" stroke-miterlimit="10" stroke-width="4"/><line x1="1247.6" x2="1331.6" y1="1504.7" y2="1504.7" fill="none" opacity=".42" stroke="#fff" stroke-linecap="round" stroke-miterlimit="10" stroke-width="4"/><line x1="1071.8" x2="1101.5" y1="1757.3" y2="1757.3" fill="none" opacity=".42" stroke="#fff" stroke-linecap="round" stroke-miterlimit="10" stroke-width="4"/><line x1="1339.4" x2="1423.4" y1="1757.3" y2="1757.3" fill="none" opacity=".42" stroke="#fff" stroke-linecap="round" stroke-miterlimit="10" stroke-width="4"/><line x1="1499.5" x2="1535.1" y1="1504.7" y2="1504.7" fill="none" opacity=".42" stroke="#fff" stroke-linecap="round" stroke-miterlimit="10" stroke-width="4"/><line x1="1837.2" x2="1977.9" y1="1504.7" y2="1504.7" fill="none" opacity=".42" stroke="#fff" stroke-linecap="round" stroke-miterlimit="10" stroke-width="4"/><line x1="2155.8" x2="2190.4" y1="1504.7" y2="1504.7" fill="none" opacity=".42" stroke="#fff" stroke-linecap="round" stroke-miterlimit="10" stroke-width="4"/><line x1="710.7" x2="739.47" y1="1542.6" y2="1542.6" fill="none" opacity=".42" stroke="#fff" stroke-linecap="round" stroke-miterlimit="10" stroke-width="4"/><line x1="796.45" x2="890.25" y1="1542.6" y2="1542.6" fill="none" opacity=".42" stroke="#fff" stroke-linecap="round" stroke-miterlimit="10" stroke-width="4"/><line x1="1103.3" x2="1142.6" y1="1542.6" y2="1542.6" fill="none" opacity=".42" stroke="#fff" stroke-linecap="round" stroke-miterlimit="10" stroke-width="4"/><line x1="1458.1" x2="1590.9" y1="1542.6" y2="1542.6" fill="none" opacity=".42" stroke="#fff" stroke-linecap="round" stroke-miterlimit="10" stroke-width="4"/><line x1="1718.4" x2="1745.9" y1="1542.6" y2="1542.6" fill="none" opacity=".42" stroke="#fff" stroke-linecap="round" stroke-miterlimit="10" stroke-width="4"/><line x1="1943.7" x2="2012.1" y1="1542.6" y2="1542.6" fill="none" opacity=".42" stroke="#fff" stroke-linecap="round" stroke-miterlimit="10" stroke-width="4"/><line x1="739.47" x2="801.39" y1="1580.5" y2="1580.5" fill="none" opacity=".42" stroke="#fff" stroke-linecap="round" stroke-miterlimit="10" stroke-width="4"/><line x1="1576.4" x2="1662.2" y1="1580.5" y2="1580.5" fill="none" opacity=".42" stroke="#fff" stroke-linecap="round" stroke-miterlimit="10" stroke-width="4"/><line x1="1837.2" x2="1872.9" y1="1580.5" y2="1580.5" fill="none" opacity=".42" stroke="#fff" stroke-linecap="round" stroke-miterlimit="10" stroke-width="4"/><line x1="1430.3" x2="1466.1" y1="1580.5" y2="1580.5" fill="none" opacity=".42" stroke="#fff" stroke-linecap="round" stroke-miterlimit="10" stroke-width="4"/><line x1="1054.5" x2="1336.1" y1="1580.5" y2="1580.5" fill="none" opacity=".42" stroke="#fff" stroke-linecap="round" stroke-miterlimit="10" stroke-width="4"/><line x1="1040.6" x2="954.66" y1="1703.1" y2="1703.1" fill="none" opacity=".42" stroke="#fff" stroke-linecap="round" stroke-miterlimit="10" stroke-width="4"/><line x1="1186.6" x2="1150.8" y1="1703.1" y2="1703.1" fill="none" opacity=".42" stroke="#fff" stroke-linecap="round" stroke-miterlimit="10" stroke-width="4"/><line x1="1562.4" x2="1280.8" y1="1703.1" y2="1703.1" fill="none" opacity=".42" stroke="#fff" stroke-linecap="round" stroke-miterlimit="10" stroke-width="4"/><line x1="869.41" x2="1070.1" y1="1618.4" y2="1618.4" fill="none" opacity=".42" stroke="#fff" stroke-linecap="round" stroke-miterlimit="10" stroke-width="4"/><line x1="1130.2" x2="1197.1" y1="1618.4" y2="1618.4" fill="none" opacity=".42" stroke="#fff" stroke-linecap="round" stroke-miterlimit="10" stroke-width="4"/><line x1="1722.9" x2="1739.1" y1="1618.4" y2="1618.4" fill="none" opacity=".42" stroke="#fff" stroke-linecap="round" stroke-miterlimit="10" stroke-width="4"/><line x1="1293.9" x2="1602.4" y1="1618.4" y2="1618.4" fill="none" opacity=".42" stroke="#fff" stroke-linecap="round" stroke-miterlimit="10" stroke-width="4"/><line x1="1011.3" x2="1336.1" y1="1656.2" y2="1656.2" fill="none" opacity=".42" stroke="#fff" stroke-linecap="round" stroke-miterlimit="10" stroke-width="4"/><line x1="1390.2" x2="1458.1" y1="1656.2" y2="1656.2" fill="none" opacity=".42" stroke="#fff" stroke-linecap="round" stroke-miterlimit="10" stroke-width="4"/><line x1="1579.4" x2="1602.4" y1="1656.2" y2="1656.2" fill="none" opacity=".42" stroke="#fff" stroke-linecap="round" stroke-miterlimit="10" stroke-width="4"/></g><g id="g1.2" fill="#531331"><path d="m960.24 1800c-70.422-54.091-140.84-138-211.27-192.09-7.397-5.682-14.96-11.455-23.764-14.534-8.638-3.021-17.96-3.27-27.107-3.534-67.46-1.951-134.85-6.401-201.98-13.338-32.032-3.31-108.4-15.553-108.4-15.553-79.405-128.63-172.6-281.71-252-410.34-20.285-32.861-41.567-66.771-73.789-88.056-18.604-12.29-39.997-19.694-61.935-24.04v761.48z"/><path d="m2788.1 1062.6c-32.222 21.285-53.504 55.195-73.789 88.056-15.633 25.325-147.47 277.91-147.47 277.91s-433.38 161.84-442.01 164.86c-8.804 3.079-16.367 8.852-23.764 14.534-30.092 23.114-42.148 32.55-71.278 60.974l4.028 131.11h816.22v-761.48c-21.938 4.346-43.331 11.75-61.935 24.039z"/><path d="m2055.4 1649.4c-4.059-3.626-9.698-5.071-15.14-5.059s-10.785 1.345-16.063 2.67c8.739-4.302 18.105-7.327 27.71-8.949-5.968-10.613-17.947-16.071-29.146-20.851 13.109-.182 26.246 3.629 37.222 10.799-2.038-7.348-5.169-14.391-9.258-20.828 11.22 7.117 20.656 17.021 27.222 28.571"/><path d="m2108.8 1608.5c-6.945-.515-12.819-7.243-12.392-14.194s7.081-12.909 14.036-12.57c-3.564-8.26-3.732-18.501 1.651-25.709s17.06-9.61 23.685-3.525c1.428-11.991 7.441-23.378 16.537-31.32 2.975-2.597 6.342-4.873 10.156-5.899 4.529-1.22 9.389-.589 13.846.874 9.651 3.167 17.927 10.319 22.459 19.409s5.264 20.003 1.986 29.617c-1.024 3.002-2.45 5.921-4.615 8.238-1.978 2.117-4.488 3.649-6.989 5.111-24.679 14.419-51.843 24.571-79.929 29.872"/><path d="m788.28 1656.6c-.252-15.625 24.082-65.327 21.451-77.799-2.251-10.672-6.236-20.898-8.987-31.453-5.316-20.397-5.951-41.681-6.556-62.751 2.969-.527 5.938-1.055 8.908-1.582-4.238 29.434 5.005 60.54 24.629 82.884 2.151-11.687 8.54-22.546 17.71-30.104 4.784-3.943 10.25-6.983 15.111-10.83 10.534-8.336 17.975-20.495 20.602-33.669 2.544 1.279 5.088 2.557 7.632 3.836-9.953 14.004-15.137 31.34-27.114 43.659-4.839 4.977-10.686 9.012-14.799 14.603-6.272 8.525-35.171 81.943-38.464 108.89"/><path d="m808.32 1496c-10.496 3.956-22.077 4.988-33.107 2.952-6.124-1.131-12.227-3.277-16.935-7.354s-7.823-10.333-6.996-16.506c1.359-10.149 12.541-16.33 22.774-16.688-9.641-1.414-17.329-9.146-21.75-17.829-8.54-16.772-5.76-39.898 9.41-51.039 9.279-6.814 21.405-8.34 32.917-8.229 11.512.11 23.096 1.622 34.487-.043-1.788-6.265.135-13.444 4.814-17.978 4.68-4.533 11.916-6.227 18.121-4.24-.067-7.47 1.911-14.949 5.662-21.409 1.177-2.027 2.607-4.03 4.685-5.114 1.995-1.04 4.339-1.108 6.589-1.094 15.204.095 30.387 2.899 44.622 8.241 4.712 1.769 9.462 3.91 12.886 7.599 5.763 6.21 6.62 15.775 4.316 23.928-2.303 8.153-7.288 15.242-12.186 22.155 7.367-.835 15.019 3.697 17.828 10.559s.528 15.459-5.311 20.028c14.011 8.231 27.697 19.954 30.656 35.932 3.498 18.891-10.47 38.21-28.63 44.479-18.161 6.27-38.797 1.313-54.909-9.153-16.676 14.22-41.819 17.604-61.661 8.299-3.455-1.62-7.165-4.245-7.263-8.06"/><path d="m742.38 1594.4c9.4-17.774 12.294-38.899 8.022-58.546 8.822 6.235 14.251 16.387 16.883 26.865s2.751 21.4 2.855 32.203c9.36-8.12 17.16-18.032 22.853-29.038.548 17.801-6.442 35.713-18.902 48.437 8.284-1.705 16.717-2.686 25.172-2.928-7.301 5.703-14.603 11.407-21.904 17.11l-50.915-2.713c7.192-5.616 10.445-15.256 9.987-24.37s-4.192-17.772-8.859-25.613c7.192 3.827 12.686 10.725 14.808 18.593z"/><path d="m838.07 1673.3c9.489-10.195 22.651-16.896 36.477-18.572-6.087-4.353-13.964-5.594-21.418-4.931s-14.627 3.071-21.718 5.461c3.182-7.971 7.891-15.33 13.797-21.559-11.771 3.693-21.898 12.342-27.387 23.39-.77-5.808-2.047-11.548-3.813-17.134-2.07 6.075-4.139 12.15-6.209 18.224l13.362 32.692c2.037-5.984 7.604-10.305 13.67-12.08 6.067-1.775 12.581-1.302 18.773-.033-4.141-3.836-9.904-5.86-15.534-5.458z"/><path d="m205.41 966.84c-1.549-2.057-3.606-3.756-4.761-6.058-1.155-2.301-1.009-5.604 1.218-6.896 1.657-.961 4.219-.739 4.982-2.497.31-.715.177-1.537.017-2.3-1.843-8.768-6.315-16.307-11.743-23.426 1.879-2.449 3.214-5.288 3.658-8.332 1.271-8.721-6.095-17.706-14.895-18.172 4.27-3.685 6-9.703 5.57-15.326-.429-5.624-2.759-10.93-5.494-15.862-2.676-4.827-5.808-9.464-9.845-13.227-7.238-6.749-17.049-10.305-26.899-11.259-8.764-.849-17.599.235-26.22 2.104-5.124.81-10.193 2.006-15.155 3.522-5.329 1.628-10.671 3.684-14.888 7.326s-7.166 9.15-6.493 14.681c-8.378-3.865-18.691-.6-25.49 5.637-4.372 4.011-7.767 9.48-7.897 15.411-.028 1.27.103 2.525.358 3.753-3.776.773-7.774.508-11.64.952-4.716.542-9.888 2.784-11.259 7.329-.684 2.268-.284 4.706.153 7.035 1.434 7.655 3.237 15.33 6.707 22.302 3.47 6.973 8.763 13.258 15.755 16.69 10.819 5.31 23.589 3.103 35.639 3.349 1.266.026 2.583.094 3.693.703 1.442.791 2.268 2.336 3.111 3.748 2.842 4.763 7.013 9.054 12.363 10.515 5.47 1.493 11.234-.148 16.884-.634 1.384-.119 2.819-.161 4.117.333 2.088.794 3.419 2.791 4.761 4.576 11.921 15.849 33.477 21.388 53.303 20.875 6.357-.164 13.135-1.013 17.98-5.131 6.115-5.199 7.237-15.307 2.41-21.721z"/><path d="m98.8 1032.1c.073-.189 30.086-60.764 30.086-60.764.405-5.839.517-13.262.272-20.984-8.183 13.564-16.116 27.42-26.468 39.312.963-27.139 5.508-53.7 10.548-80.182-7.916 9.153-19.207 40.893-34.832 113.45-3.857 17.912-17.869 55.06-24.189 72.258l26.91-5.511c4.525-19.578 10.436-38.837 17.673-57.583z"/><path d="m96.672 1094.8c4.648-9.372 12.688-17.015 22.282-21.183-5.314-1.83-11.251-1.036-16.475 1.037s-9.872 5.343-14.465 8.583c.584-6.42 2.398-12.727 5.315-18.476-7.683 5.18-13.121 13.575-14.707 22.704-1.798-4.016-3.947-7.875-6.415-11.519-.189 4.817-.378 9.633-.567 14.45l16.622 20.674c.185-4.744 3.267-9.047 7.254-11.624s8.778-3.632 13.508-4.045c-3.802-1.874-8.385-2.097-12.352-.601z"/><path d="m2145.5 1421c-7.277-9.023-19.037-14.237-30.61-13.57 4.577-3.256 8.807-7 12.595-11.147 1.288-1.411 2.584-3.001 2.756-4.904.255-2.834-2.021-5.206-4.2-7.037-18.795-15.794-44.156-23.514-68.563-20.869 1.677-4.632-.225-10.229-4.2-13.071-2.009-5.452-6.157-10.374-11.145-13.475-8.77-5.453-19.446-6.636-29.72-7.687-3.744-.383-7.583-.76-11.227.188-4.078 1.06-7.552 3.685-10.781 6.392-7.442 6.237-14.241 13.24-20.257 20.862-2.667 3.379-5.236 6.996-6.257 11.178s-.178 9.073 3.098 11.864c2.906 2.475 7.995 4.549 6.778 8.167-.348 1.034-1.199 1.805-2.016 2.527-10.56 9.329-21.12 18.659-31.68 27.988-5.272 4.658-10.815 9.747-12.505 16.576-1.691 6.829 2.651 15.542 9.686 15.541-6.671 1.295-13.081 3.917-18.748 7.667-1.749 1.157-3.479 2.478-4.495 4.312-1.015 1.831-1.219 3.998-1.214 6.092.033 15.355 10.677 29.559 24.593 36.049s30.425 5.946 44.908.844c14.482-5.102 27.144-14.424 38.308-24.966.948-.895 1.993-1.85 3.291-1.968 1.772-.161 3.231 1.261 4.594 2.405 5.892 4.947 14.781 5.981 21.651 2.518 6.871-3.463 11.327-11.223 10.855-18.902 12.728 6.913 28.039 8.423 42.204 5.406 14.166-3.017 27.205-10.357 38.082-19.922 4.377-3.849 8.653-8.498 9.401-14.278.686-5.32-1.812-10.602-5.182-14.78z"/><path d="m2073.2 1558.1c-1.812-3.388-3.849-6.719-4.813-10.437-1.052-4.061-.76-8.334-.453-12.518 1.821-24.83 3.882-49.642 6.184-74.432l-12.948-5.615c-3.372 22.488-6.743 44.976-10.115 67.464-.526-.188-1.115-.236-1.681-.267-12.311-.668-24.605-1.636-36.869-2.902-1.369-.141-2.807-.312-3.923-1.116-1.209-.871-1.826-2.327-2.385-3.708l-13.908-34.341-4.462.2c3.692 16.465 7.977 32.798 12.844 48.955.228.756.469 1.535.973 2.142 1.224 1.476 3.456 1.433 5.369 1.3 14.075-.979 28.281.024 42.087 2.932-.24 1.871-.387 3.751-.189 5.622.257 2.429 1.079 4.757 1.894 7.059l28.344 80.01c7.27-.803 14.343-3.336 20.471-7.33-6.091-14.951-12.181-29.901-18.272-44.852-2.505-6.149-5.016-12.311-8.148-18.166z"/></g><g id="g1.35" fill="#3f0021"><path d="m0 1111.1s42.955 20.229 54.756 64.059c11.8 43.83 64.48 225.58 64.48 225.58l-46.04 109.56 203.45 71.922 39.014 108.68 256.55 3.979 145.05 105.12h-717.26z"/><path d="m2471.7 1125.3c-21.585-18.817-50.571-27.737-79.205-27.979 5.177-8.635 4.941-20.226-.585-28.643s-16.067-13.242-26.049-11.925c15.587-11.213 16.809-35.574 6.675-51.883s-28.488-25.714-46.874-31.249c-22.754-6.851-48.953-8.494-68.896 4.429-26.903 17.432-32.72 53.646-36.013 85.533-18.951-4.966-40.763-2.463-55.463 10.489-14.699 12.952-19.363 37.463-7.133 52.768-48.413-2.595-99.99 25.52-114.33 71.833-5.579 18.016-4.943 39.022 6.362 54.119 9.1 12.152 23.973 18.969 38.979 21.261 15.007 2.292 57.748-.926 72.772-3.107 0 0 24.167 44.823 112.73 35.966 71.958-7.196 83.951-32.368 83.951-32.368s69.106 20.078 104.34-9.594c16.179-13.626 76.756-80.354 8.737-139.65z"/><path d="m2390.9 1250.9c-5.121 37.423-10.242 74.846-15.363 112.27-1.534 11.207-3.163 22.71-8.669 32.591-5.262 9.444-13.659 16.672-21.882 23.691-17.271 14.742-34.541 29.484-51.812 44.226-9.642-69.187-8.379-139.9 4.26-208.6l-17.586 19.78c-4.109 31.351-8.219 62.702-12.328 94.054-.844 6.437-1.677 12.884-2.433 19.339-1.261-1.549-3.581-2.159-5.636-2.602-14.554-3.137-28.511-9.027-40.913-17.265-2.142-1.423-4.32-3.009-5.473-5.307-1.076-2.145-1.122-4.641-1.146-7.04-.368-36.691-.737-73.382-1.105-110.07l-27.183-21.184c5.532 48.864 7.943 98.081 7.212 147.25-.049 3.299-.077 6.752 1.429 9.687 1.627 3.169 4.781 5.222 7.84 7.046 19.174 11.435 40.208 19.743 62.02 24.497.354-1.938.707-3.877 1.06-5.815-.649 8.524-1.005 17.062-.837 25.613.495 25.221 5.418 50.112 9.535 75 7.582 45.833 12.476 92.112 14.645 138.52 19.744-.528 39.487-1.056 59.23-1.583-21.567-47.203-37.296-97.014-47.066-147.98 22.794-22.144 45.587-44.287 68.381-66.43 5.518-5.36 11.154-10.884 14.411-17.852 2.886-6.173 3.714-13.077 4.503-19.845 6.189-53.031 12.378-106.06 18.568-159.09z"/><path d="m2676.4 1359.2-1.663 77.952-234.14 135.54v61.046l-734.8 62.897s-12.774 1.992-33.727 16.406l-126.43 86.974h1304.4v-592.95z"/><path d="m1724.8 1694.8c-1.94-8.72-5.179-17.15-9.577-24.925 9.043 4.838 17.044 11.613 23.306 19.736-.487-20.975-10.706-40.443-14.42-61.092 8.922 7.772 14.868 18.5 18.665 29.706s5.592 22.975 7.37 34.673c.97-13.004 2.045-26.399 7.939-38.031.406 11.204 1.444 22.384 3.11 33.471 1.153-8.717 5.172-17.03 11.287-23.349-1.767 12.63-2.519 25.402-2.248 38.153"/><path d="m1826.1 1661.2-11.571-3.504c-.907-.275-1.857-.575-2.51-1.261-.518-.545-.79-1.272-1.048-1.978-1.435-3.919-2.871-7.837-4.306-11.756 3.185-.52 6.273-1.632 9.059-3.262-3.58-1.286-8.625-1.816-12.205-3.101 0 0-24.303-30.502-36.232-42.325 9.071 1.189 18.021 3.293 26.672 6.269 2.709.932 12.789 4.214 12.789 4.214s-2.262 5.155-3.604 7.686l6.534-3.303c.701-.354 2.405-1.314 2.405-1.314s1.628 1.448 2.337 2.147c8.424 8.316 14.486 18.672 20.447 28.899 1.601 2.745 3.25 6.004 2.063 8.952 1.753.509 3.66.472 5.392-.104 3.07 9.644 4.614 19.771 4.558 29.892-5.302-7.198-12.583-12.923-20.827-16.38"/><path d="m1838.3 1664c6.6 12.446 11.071 25.705 13.432 39.588.452 2.658 4.498 1.531 4.048-1.116-2.421-14.234-7.093-27.839-13.855-40.591-1.266-2.388-4.892-.269-3.625 2.119z"/><path d="m1843.8 1574.6c-2.637 3.8-5.206 14.022-6.213 18.537 1.562 1.2 3.022 2.532 4.359 3.978-1.994.594-4.104.796-6.175.591-.24 4.63-.48 9.26-.72 13.891-.119 2.301-.014 8.946-.014 8.946s3.258 1.991 5.56 2.062c-1.513.755-3.025 1.509-4.538 2.264 2.562 10.978 6.773 21.569 12.447 31.31 4.376-6.866 8.469-22.717 8.469-22.717l1.681-7.038-4.905-4.187h5.803c3.597-15.888-2.835-37.712-15.754-47.637"/><path d="m1847.5 1614c-1.094 14.3-2.616 28.664-2.358 43.022.246 13.679 2.344 27.25 5.999 40.424.721 2.6 4.773 1.496 4.048-1.116-3.737-13.471-5.776-27.291-5.872-41.28-.095-13.701 1.337-27.403 2.381-41.051.206-2.693-3.993-2.68-4.198.001z"/><path d="m1854.6 1696.1c5.758-28.11 19.574-58.305 43.318-75.643 2.16-1.577.068-5.222-2.119-3.625-24.671 18.015-39.248 48.861-45.248 78.152-.54 2.637 3.506 3.765 4.049 1.116z"/><path d="m1903.6 1634.4c5.777-8.273 10.859-17.102 15.842-25.822-6.133-.623-12.266.208-18.151 2.02-.708 1.785-1.522 3.57-.63 5.355-.801-1.601-1.154-3.194-1.825-4.533-4.949 1.77-9.694 4.202-14.076 7.015-4.832 3.101-9.372 6.699-13.032 11.048-.879 1.045-1.691 2.14-2.461 3.263.933 1.866 2.473 3.732 3.406 5.599-1.942 0-3.884-.679-5.825-1.559-.902 1.701-1.717 3.445-2.368 5.249-2.867 7.953-5.688 20.044-5.389 28.452l.704 1.678c7.32-4.069 14.674-8.159 21.271-13.256.25-.193.487-.4.734-.596-.727-1.457-1.667-2.704-.731-4.575 0 2.146 1.462 2.464 2.892 2.823 6.436-5.437 11.971-11.724 16.969-18.461-2.099-.887-3.472-3.954-5.867-3.954 2.846 0 5.691-.639 8.537.254z"/><path d="m520.24 1161.9c30.224 4.101 59.192 17.055 82.398 36.849 7.074 6.034 14.206 14.722 11.549 23.632-1.792 6.011-7.47 9.826-12.088 14.071s-8.661 10.816-5.99 16.492c1.264 2.685 3.788 4.525 6.257 6.172 24.793 16.542 54.718 26.01 75.325 47.543 7.398 7.73 13.438 19.854 7.337 28.644-2.328 3.354-6.387 6.341-5.754 10.375.282 1.798 1.503 3.298 2.785 4.59 7.053 7.103 16.911 10.51 25.41 15.796 8.5 5.286 16.333 14.226 14.845 24.124-.743 4.94-3.704 9.224-6.636 13.269-9.639 13.296-19.997 26.295-32.9 36.453s-28.659 17.362-45.079 17.596c-25.408.362-47.755-15.364-70.94-25.765-2.435-1.093-5.007-2.151-7.671-1.992-3.462.207-6.429 2.405-9.31 4.337-9.712 6.513-21.532 10.929-33.047 8.887-11.772-2.088-21.276-10.417-31.605-16.439-2.53-1.475-5.226-2.849-8.146-3.079-4.695-.369-9.033 2.235-13.202 4.426-37.016 19.452-83.093 10.563-120.41-8.298-11.966-6.047-24.119-13.78-29.638-25.998-6.968-15.425.012-35.701 14.998-43.569 4.807-2.524 10.26-3.906 14.537-7.25 4.276-3.344 6.979-9.77 3.899-14.241-2.292-3.326-7.374-5.215-7.242-9.252.054-1.643 1.049-3.088 2.043-4.397 26.761-35.258 74.921-44.675 112.96-67.318 1.568-.933 3.255-2.068 3.683-3.842.766-3.175-2.755-5.499-5.379-7.444-11.304-8.377-11.459-26.29-3.851-38.125s20.707-18.847 33.55-24.593c12.482-5.585 25.567-10.528 39.229-11.1"/><path d="m422.93 1415.6c-1.748 16.995 14.31 76.848 17.269 78.751 16.722 10.757 33.444 21.515 50.167 32.272 15.138-5.425 26.714-5.994 42.572-8.658 9.299-1.562 19.418-2.997 26.028-9.722 4.169-4.241 6.313-10.021 8.247-15.644 7.989-23.23 14.357-47.017 19.045-71.131l11.409 22.598c-5.174 18.694-10.349 37.387-15.522 56.081-1.846 6.669-3.77 13.503-7.863 19.083-9.342 12.733-26.782 15.454-42.024 19.588-4.445 1.206-9.018 2.719-12.287 5.963-2.528 2.507-4.05 5.828-5.496 9.081-15.701 35.299-36.691 134.85-47.046 172.07l-61.379-6.391c16.358-39.085 51.545-134.1 62.234-175.1.108-.414.224-.83.338-1.246-12.069-8.218-24.137-16.436-36.206-24.654-2.403-1.637-4.878-3.346-6.406-5.82-1.45-2.349-1.905-5.16-2.322-7.889-4.651-30.337-8.538-60.792-11.655-91.325 5.448 1.045 5.448 1.045 10.897 2.093z"/><path d="m705.91 1691.1c-18.297-8.855-41.544-6.343-57.528 6.217-1.059-13.596-12.758-25.026-26.112-27.794-13.353-2.768-27.568 2.192-37.914 11.077 2.762-15.064-6.862-30.645-20.447-37.718-13.584-7.073-30.102-6.697-44.727-2.153-14.626 4.544-27.735 12.896-40.447 21.438-4.555 3.061-9.609 8.892-6.175 13.173l-4.976-1.662c-2.13 30.788 17.771 60.098 44.095 76.205s58.038 20.953 88.889 21.752c29.894.775 60.153-1.99 88.521-11.451 9.436-3.147 18.808-7.133 26.285-13.693 7.476-6.561 12.874-16.073 12.514-26.013-.464-12.847-10.407-23.778-21.978-29.378z"/><path d="m314.45 1641.7c10.139-12.226 27.185-19.292 42.48-15.014 11.957 3.344 21.15 12.691 29.602 21.787-1.986-7.795 3.846-16.192 11.519-18.606s16.284.277 22.545 5.327 10.505 12.169 13.934 19.445c11.55 13.183 8.385 27.255 2.967 43.923-5.417 16.669-19.168 30.171-35.604 36.258-11.193 4.145-23.408 5.036-35.273 4.447-8.799-.437-17.534-1.821-26.053-4.067-10.263-2.706-20.695-6.826-27.954-14.636-8.411-9.049-11.479-21.927-11.8-34.277-.413-15.878 3.497-32.361 13.637-44.587z"/></g></svg>