<svg width="2850" height="1800" viewBox="0 0 2850 1800" fill="none" xmlns="http://www.w3.org/2000/svg">
<path d="M2850 0H0V1800H2850V0Z" fill="url(#paint0_linear_4_240)"/>
<path opacity="0.08" d="M1409.8 1587.72C1739.54 1587.72 2006.85 1320.41 2006.85 990.67C2006.85 660.928 1739.54 393.62 1409.8 393.62C1080.06 393.62 812.75 660.928 812.75 990.67C812.75 1320.41 1080.06 1587.72 1409.8 1587.72Z" fill="#E5EDD4"/>
<path opacity="0.08" d="M1409.8 1420.34C1647.1 1420.34 1839.47 1227.97 1839.47 990.67C1839.47 753.37 1647.1 561 1409.8 561C1172.5 561 980.13 753.37 980.13 990.67C980.13 1227.97 1172.5 1420.34 1409.8 1420.34Z" fill="#E5EDD4"/>
<path d="M1409.8 1307.48C1584.77 1307.48 1726.61 1165.64 1726.61 990.67C1726.61 815.701 1584.77 673.86 1409.8 673.86C1234.83 673.86 1092.99 815.701 1092.99 990.67C1092.99 1165.64 1234.83 1307.48 1409.8 1307.48Z" fill="white"/>
<path d="M1707.5 264.5C1708.09 263.287 1708.11 261.969 1707.27 260.879C1706.62 260.037 1705.62 259.565 1704.55 259.567C1703.65 259.569 1702.71 259.924 1702.07 260.575C1701.02 261.654 1700.94 263.204 1701.6 264.506C1702.34 265.939 1704.47 266.471 1705.81 265.607C1707.27 264.664 1707.69 262.939 1706.91 261.406C1706.9 261.385 1706.89 261.364 1706.87 261.343C1706.98 261.587 1707.08 261.832 1707.18 262.076C1707.18 262.057 1707.17 262.039 1707.17 262.02V263.652C1707.17 263.636 1707.17 263.619 1707.18 263.603C1707.08 263.847 1706.98 264.092 1706.87 264.336C1706.88 264.322 1706.89 264.308 1706.9 264.294L1706.42 264.915C1706.43 264.903 1706.44 264.891 1706.45 264.879L1705.83 265.359C1705.85 265.349 1705.86 265.34 1705.88 265.33C1705.64 265.433 1705.39 265.536 1705.15 265.64C1705.19 265.622 1705.23 265.61 1705.27 265.604C1705 265.641 1704.72 265.677 1704.45 265.714C1704.52 265.706 1704.58 265.705 1704.65 265.712C1704.38 265.675 1704.11 265.639 1703.84 265.602C1703.88 265.608 1703.92 265.619 1703.96 265.636C1703.71 265.533 1703.47 265.43 1703.22 265.326C1703.24 265.335 1703.26 265.344 1703.27 265.354L1702.65 264.874C1702.67 264.886 1702.68 264.897 1702.69 264.909L1702.21 264.288C1702.22 264.302 1702.23 264.316 1702.23 264.33C1702.13 264.086 1702.03 263.841 1701.93 263.597C1701.93 263.613 1701.94 263.63 1701.94 263.646V262.014C1701.94 262.033 1701.93 262.052 1701.93 262.07C1702.03 261.826 1702.13 261.581 1702.23 261.337C1702.22 261.358 1702.21 261.379 1702.2 261.401C1701.84 262.153 1701.67 262.937 1701.89 263.767C1702.09 264.479 1702.64 265.251 1703.31 265.602C1704.68 266.328 1706.76 266.043 1707.5 264.5H1707.5Z" fill="white"/>
<path d="M1717.6 179.12C1717.32 179.395 1717.05 179.67 1716.77 179.946C1715.64 181.083 1715.55 183.166 1716.77 184.288C1718 185.413 1719.9 185.502 1721.12 184.288L1721.94 183.462C1723.08 182.325 1723.16 180.242 1721.94 179.12C1720.72 177.994 1718.81 177.906 1717.6 179.12Z" fill="white"/>
<path d="M1757.5 137L1756.67 136.174C1755.54 135.037 1753.45 134.952 1752.33 136.174C1751.21 137.4 1751.12 139.302 1752.33 140.516L1753.16 141.342C1754.29 142.479 1756.38 142.564 1757.5 141.342C1758.63 140.117 1758.71 138.214 1757.5 137Z" fill="white"/>
<path d="M1811.2 167.25V166.424C1811.2 164.818 1809.79 163.28 1808.13 163.354C1806.47 163.429 1805.06 164.703 1805.06 166.424V167.25C1805.06 168.856 1806.47 170.394 1808.13 170.32C1809.79 170.245 1811.2 168.971 1811.2 167.25Z" fill="white"/>
<path d="M1760.8 334.04C1760.77 333.215 1760.74 332.391 1760.72 331.566C1760.66 329.963 1759.34 328.42 1757.65 328.496C1756.03 328.568 1754.52 329.847 1754.58 331.566C1754.6 332.391 1754.63 333.215 1754.66 334.04C1754.71 335.643 1756.03 337.186 1757.73 337.11C1759.35 337.038 1760.86 335.759 1760.8 334.04Z" fill="white"/>
<path d="M1726.9 381.41L1726.07 380.584C1724.94 379.447 1722.85 379.362 1721.73 380.584C1720.61 381.81 1720.52 383.712 1721.73 384.926L1722.56 385.752C1723.69 386.889 1725.78 386.974 1726.9 385.752C1728.03 384.526 1728.11 382.623 1726.9 381.41Z" fill="white"/>
<path d="M1647.2 280.6H1646.69C1642.74 280.6 1642.73 286.74 1646.69 286.74H1647.2C1651.15 286.74 1651.16 280.6 1647.2 280.6H1646.69C1642.74 280.6 1642.73 286.74 1646.69 286.74H1647.2C1651.15 286.74 1651.16 280.6 1647.2 280.6Z" fill="white"/>
<path d="M1576.1 280.6H1575.27C1573.67 280.6 1572.13 282.012 1572.2 283.67C1572.28 285.333 1573.55 286.74 1575.27 286.74H1576.1C1577.71 286.74 1579.24 285.328 1579.17 283.67C1579.09 282.007 1577.82 280.6 1576.1 280.6Z" fill="white"/>
<path d="M1575.9 355.51V354.999C1575.9 351.048 1569.76 351.041 1569.76 354.999V355.51C1569.76 359.461 1575.9 359.468 1575.9 355.51V354.999C1575.9 351.048 1569.76 351.041 1569.76 354.999V355.51C1569.76 359.461 1575.9 359.468 1575.9 355.51Z" fill="white"/>
<path d="M1475.9 313.09L1476.73 312.264C1477.86 311.127 1477.95 309.044 1476.73 307.922C1475.5 306.797 1473.6 306.708 1472.38 307.922C1472.11 308.197 1471.83 308.472 1471.56 308.748C1470.42 309.885 1470.34 311.968 1471.56 313.09C1472.78 314.215 1474.69 314.303 1475.9 313.09Z" fill="white"/>
<path d="M1421.7 255.36C1425.65 255.36 1425.66 249.22 1421.7 249.22C1417.75 249.22 1417.74 255.36 1421.7 255.36Z" fill="white"/>
<path d="M1548.6 186.55C1548.32 186.275 1548.05 186 1547.77 185.724C1546.64 184.587 1544.55 184.502 1543.43 185.724C1542.31 186.95 1542.22 188.852 1543.43 190.066C1543.71 190.341 1543.98 190.616 1544.26 190.892C1545.4 192.029 1547.48 192.114 1548.6 190.892C1549.72 189.666 1549.81 187.763 1548.6 186.55Z" fill="white"/>
<path d="M1397 378.03H1396.17C1394.57 378.03 1393.03 379.442 1393.1 381.1C1393.18 382.763 1394.45 384.17 1396.17 384.17H1397C1398.61 384.17 1400.14 382.758 1400.07 381.1C1400 379.437 1398.72 378.03 1397 378.03Z" fill="white"/>
<path d="M1527.4 463.9H1526.57C1524.97 463.9 1523.43 465.312 1523.5 466.97C1523.58 468.633 1524.85 470.04 1526.57 470.04H1527.4C1529.01 470.04 1530.54 468.628 1530.47 466.97C1530.4 465.307 1529.12 463.9 1527.4 463.9Z" fill="white"/>
<path d="M1929.6 523.28H1927.98C1926.38 523.28 1924.84 524.692 1924.91 526.35C1924.99 528.013 1926.26 529.42 1927.98 529.42H1929.6C1931.21 529.42 1932.75 528.008 1932.67 526.35C1932.6 524.687 1931.32 523.28 1929.6 523.28Z" fill="white"/>
<path d="M2096.1 422.67C2100.05 422.67 2100.06 416.53 2096.1 416.53C2092.15 416.529 2092.14 422.67 2096.1 422.67Z" fill="white"/>
<path d="M2272.5 427.72C2271.97 427.662 2271.44 427.603 2270.9 427.545C2270.17 427.465 2269.23 427.946 2268.73 428.444C2268.2 428.977 2267.8 429.85 2267.83 430.615C2267.87 431.409 2268.13 432.233 2268.73 432.786C2269.37 433.37 2270.05 433.591 2270.9 433.685C2271.44 433.743 2271.97 433.802 2272.5 433.86C2273.23 433.94 2274.17 433.459 2274.67 432.961C2275.2 432.428 2275.6 431.555 2275.57 430.79C2275.53 429.996 2275.27 429.172 2274.67 428.619C2274.03 428.035 2273.35 427.814 2272.5 427.72Z" fill="white"/>
<path d="M1915 253.17H1914.11C1910.16 253.17 1910.15 259.31 1914.11 259.31H1915C1918.95 259.311 1918.96 253.17 1915 253.17H1914.11C1910.16 253.17 1910.15 259.31 1914.11 259.31H1915C1918.95 259.311 1918.96 253.17 1915 253.17Z" fill="white"/>
<path d="M2039.5 227.3H2038.61C2034.66 227.3 2034.65 233.44 2038.61 233.44H2039.5C2043.45 233.441 2043.46 227.3 2039.5 227.3H2038.61C2034.66 227.3 2034.65 233.44 2038.61 233.44H2039.5C2043.45 233.441 2043.46 227.3 2039.5 227.3Z" fill="white"/>
<path d="M1880 79.395L1878.38 77.778C1877.25 76.641 1875.16 76.556 1874.04 77.778C1872.92 79.004 1872.83 80.906 1874.04 82.12L1875.66 83.737C1876.79 84.874 1878.88 84.959 1880 83.737C1881.13 82.511 1881.21 80.608 1880 79.395Z" fill="white"/>
<path d="M1939.3 71.697C1943.25 71.697 1943.26 65.557 1939.3 65.557C1935.35 65.556 1935.34 71.697 1939.3 71.697Z" fill="white"/>
<path d="M1816.3 92.723C1820.25 92.723 1820.26 86.583 1816.3 86.583C1812.35 86.582 1812.34 92.723 1816.3 92.723Z" fill="white"/>
<path d="M1853.5 7.00096C1857.45 7.00096 1857.46 0.860962 1853.5 0.860962C1849.55 0.860962 1849.54 7.00096 1853.5 7.00096Z" fill="white"/>
<path d="M1929.6 31.5911H1927.98C1926.38 31.5911 1924.84 33.0031 1924.91 34.6611C1924.99 36.3241 1926.26 37.7311 1927.98 37.7311H1929.6C1931.21 37.7311 1932.75 36.3191 1932.67 34.6611C1932.6 32.9981 1931.32 31.5911 1929.6 31.5911Z" fill="white"/>
<path d="M2022.8 37.343L2021.18 38.96C2020.05 40.097 2019.96 42.18 2021.18 43.302C2022.41 44.427 2024.31 44.516 2025.53 43.302L2027.14 41.685C2028.28 40.548 2028.36 38.465 2027.14 37.343C2025.92 36.218 2024.01 36.129 2022.8 37.343Z" fill="white"/>
<path d="M2060.4 94.505V92.888C2060.4 91.282 2058.99 89.744 2057.33 89.818C2055.67 89.893 2054.26 91.167 2054.26 92.888V94.505C2054.26 96.111 2055.67 97.649 2057.33 97.575C2058.99 97.5 2060.4 96.226 2060.4 94.505Z" fill="white"/>
<path d="M2092.7 143.03V142.14C2092.7 138.189 2086.56 138.182 2086.56 142.14V143.03C2086.56 146.981 2092.7 146.988 2092.7 143.03V142.14C2092.7 138.189 2086.56 138.182 2086.56 142.14V143.03C2086.56 146.981 2092.7 146.988 2092.7 143.03Z" fill="white"/>
<path d="M2190 8.948H2188.38C2186.78 8.948 2185.24 10.36 2185.31 12.018C2185.39 13.681 2186.66 15.088 2188.38 15.088H2190C2191.61 15.088 2193.14 13.676 2193.07 12.018C2193 10.355 2191.72 8.948 2190 8.948Z" fill="white"/>
<path d="M2266 5.38402C2269.95 5.38402 2269.96 -0.755981 2266 -0.755981C2262.05 -0.755981 2262.04 5.38402 2266 5.38402Z" fill="white"/>
<path d="M2266 120.55H2264.38C2262.78 120.55 2261.24 121.962 2261.31 123.62C2261.39 125.283 2262.66 126.69 2264.38 126.69H2266C2267.61 126.69 2269.14 125.278 2269.07 123.62C2269 121.956 2267.72 120.55 2266 120.55Z" fill="white"/>
<path d="M2490.8 17.035H2489.91C2485.96 17.035 2485.95 23.175 2489.91 23.175H2490.8C2494.75 23.175 2494.76 17.035 2490.8 17.035H2489.91C2485.96 17.035 2485.95 23.175 2489.91 23.175H2490.8C2494.75 23.175 2494.76 17.035 2490.8 17.035Z" fill="white"/>
<path d="M2569.9 58.922V57.305C2569.9 55.699 2568.49 54.161 2566.83 54.235C2565.17 54.31 2563.76 55.584 2563.76 57.305V58.922C2563.76 60.528 2565.17 62.066 2566.83 61.992C2568.49 61.918 2569.9 60.643 2569.9 58.922Z" fill="white"/>
<path d="M2642.8 351.55C2642.75 351.56 2642.7 351.561 2642.64 351.554C2642.92 351.591 2643.19 351.627 2643.46 351.664C2643.44 351.659 2643.41 351.653 2643.39 351.648C2643.64 351.751 2643.88 351.854 2644.12 351.957C2644.08 351.943 2644.04 351.921 2644.01 351.893L2644.63 352.373C2644.59 352.345 2644.56 352.312 2644.53 352.274L2645.01 352.895C2644.99 352.856 2644.96 352.814 2644.95 352.769C2645.05 353.013 2645.15 353.258 2645.26 353.502C2645.23 353.427 2645.21 353.359 2645.2 353.28C2645.24 353.552 2645.27 353.824 2645.31 354.096C2645.3 354.014 2645.3 353.94 2645.31 353.858C2645.28 354.13 2645.24 354.402 2645.2 354.674C2645.21 354.594 2645.23 354.524 2645.25 354.447C2645.15 354.691 2645.05 354.936 2644.94 355.18C2644.97 355.109 2645.01 355.053 2645.05 354.991L2644.57 355.612C2644.6 355.577 2644.63 355.546 2644.67 355.52C2644.46 355.68 2644.26 355.84 2644.05 356C2644.07 355.989 2644.09 355.978 2644.11 355.967C2643.86 356.07 2643.62 356.173 2643.37 356.277C2643.42 356.258 2643.46 356.247 2643.51 356.243C2643.23 356.28 2642.96 356.316 2642.69 356.353C2642.71 356.353 2642.74 356.354 2642.76 356.354C2642.49 356.317 2642.22 356.281 2641.95 356.244C2641.98 356.249 2642 356.253 2642.03 356.258C2642.86 356.403 2643.64 356.39 2644.4 355.949C2645.03 355.576 2645.64 354.846 2645.81 354.114C2646.15 352.622 2645.36 350.631 2643.66 350.337C2642.41 350.12 2641.22 350.288 2640.27 351.22C2639.58 351.907 2639.16 352.919 2639.17 353.897C2639.17 354.788 2639.41 355.596 2639.95 356.303C2640.61 357.149 2641.68 357.8 2642.8 357.688C2643.63 357.604 2644.36 357.402 2644.97 356.789C2645.5 356.256 2645.9 355.383 2645.87 354.618C2645.8 353.095 2644.51 351.377 2642.8 351.55Z" fill="white"/>
<path d="M2480.8 478.62C2480.77 478.533 2480.76 478.38 2480.72 478.305C2480.95 478.682 2480.77 478.982 2480.8 478.556C2480.82 478.171 2480.76 479.275 2480.76 478.892C2480.77 478.492 2481.14 478.775 2480.66 479.092C2480.69 479.073 2480.83 478.846 2480.83 478.811C2480.83 478.871 2480.37 479.377 2480.66 479.057C2481 478.685 2480.18 479.344 2480.49 479.189C2480.8 479.031 2479.71 479.454 2480.27 479.27C2481.8 478.773 2482.95 477.122 2482.42 475.493C2481.93 473.971 2480.28 472.815 2478.64 473.349C2475.81 474.274 2473.97 477.31 2474.88 480.252C2475.36 481.784 2477.05 482.918 2478.66 482.396C2480.2 481.898 2481.31 480.263 2480.8 478.62Z" fill="white"/>
<path d="M2596.8 573.4C2596.26 572.323 2595.72 571.246 2595.18 570.168C2594.45 568.73 2592.31 568.207 2590.98 569.067C2589.51 570.015 2589.1 571.729 2589.87 573.268C2590.42 574.345 2590.96 575.422 2591.5 576.5C2592.22 577.938 2594.37 578.461 2595.7 577.601C2597.17 576.652 2597.57 574.938 2596.8 573.4Z" fill="white"/>
<path d="M2744.6 508.56V506.943C2744.6 505.337 2743.19 503.799 2741.53 503.873C2739.87 503.948 2738.46 505.222 2738.46 506.943V508.56C2738.46 510.166 2739.87 511.704 2741.53 511.63C2743.19 511.556 2744.6 510.281 2744.6 508.56Z" fill="white"/>
<path d="M2746.2 658.97V657.353C2746.2 655.747 2744.79 654.209 2743.13 654.283C2741.47 654.358 2740.06 655.632 2740.06 657.353V658.97C2740.06 660.576 2741.47 662.114 2743.13 662.04C2744.79 661.966 2746.2 660.691 2746.2 658.97Z" fill="white"/>
<path d="M2393.6 709.11V707.493C2393.6 705.887 2392.19 704.349 2390.53 704.423C2388.87 704.497 2387.46 705.772 2387.46 707.493V709.11C2387.46 710.716 2388.87 712.254 2390.53 712.18C2392.19 712.106 2393.6 710.831 2393.6 709.11Z" fill="white"/>
<path d="M1905.1 730.14V728.523C1905.1 726.917 1903.69 725.379 1902.03 725.453C1900.37 725.528 1898.96 726.802 1898.96 728.523V730.14C1898.96 731.746 1900.37 733.284 1902.03 733.21C1903.69 733.136 1905.1 731.861 1905.1 730.14Z" fill="white"/>
<path d="M1591.5 632.93C1595.45 632.93 1595.46 626.79 1591.5 626.79C1587.55 626.79 1587.54 632.93 1591.5 632.93Z" fill="white"/>
<path d="M1392.4 587.81V586.193C1392.4 584.587 1390.99 583.049 1389.33 583.123C1387.67 583.197 1386.26 584.472 1386.26 586.193V587.81C1386.26 589.416 1387.67 590.954 1389.33 590.88C1390.99 590.806 1392.4 589.531 1392.4 587.81Z" fill="white"/>
<path d="M1061 642.63C1064.95 642.63 1064.96 636.49 1061 636.49C1057.05 636.49 1057.04 642.63 1061 642.63Z" fill="white"/>
<path d="M955.34 467.57L953.723 469.187C952.586 470.324 952.501 472.407 953.723 473.529C954.949 474.654 956.851 474.743 958.065 473.529L959.682 471.912C960.819 470.775 960.904 468.692 959.682 467.57C958.456 466.445 956.553 466.356 955.34 467.57Z" fill="white"/>
<path d="M975.3 371.24H973.683C972.077 371.24 970.539 372.652 970.613 374.31C970.688 375.973 971.962 377.38 973.683 377.38H975.3C976.906 377.38 978.444 375.968 978.37 374.31C978.296 372.646 977.021 371.24 975.3 371.24Z" fill="white"/>
<path d="M1200.1 304.6C1204.05 304.6 1204.06 298.46 1200.1 298.46C1196.15 298.459 1196.14 304.6 1200.1 304.6Z" fill="white"/>
<path d="M958.57 181.29L956.953 182.907C955.816 184.044 955.731 186.127 956.953 187.249C958.179 188.374 960.081 188.463 961.295 187.249L962.912 185.632C964.049 184.495 964.134 182.412 962.912 181.29C961.686 180.165 959.783 180.077 958.57 181.29Z" fill="white"/>
<path d="M951.04 93.052H950.15C946.199 93.052 946.192 99.192 950.15 99.192H951.04C954.991 99.192 954.998 93.052 951.04 93.052H950.15C946.199 93.052 946.192 99.192 950.15 99.192H951.04C954.991 99.192 954.998 93.052 951.04 93.052Z" fill="white"/>
<path d="M684.17 120.55H682.553C680.947 120.55 679.409 121.962 679.483 123.62C679.558 125.283 680.832 126.69 682.553 126.69H684.17C685.776 126.69 687.314 125.278 687.24 123.62C687.166 121.956 685.892 120.55 684.17 120.55Z" fill="white"/>
<path d="M723.15 44.366V45.256C723.15 49.207 729.29 49.214 729.29 45.256V44.366C729.291 40.415 723.15 40.408 723.15 44.366V45.256C723.15 49.207 729.29 49.214 729.29 45.256V44.366C729.291 40.415 723.15 40.408 723.15 44.366Z" fill="white"/>
<path d="M682.25 390.5C682.192 389.967 682.133 389.435 682.075 388.902C681.983 388.064 681.794 387.349 681.176 386.731C680.644 386.198 679.77 385.797 679.005 385.832C678.211 385.868 677.387 386.128 676.834 386.731C676.318 387.293 675.848 388.109 675.935 388.902C675.993 389.435 676.052 389.967 676.11 390.5C676.202 391.338 676.391 392.053 677.009 392.671C677.542 393.204 678.415 393.605 679.18 393.57C679.974 393.534 680.798 393.274 681.351 392.671C681.867 392.109 682.337 391.293 682.25 390.5Z" fill="white"/>
<path d="M478.76 37.732H481.995C483.601 37.732 485.139 36.32 485.065 34.662C484.99 32.999 483.716 31.592 481.995 31.592H478.76C477.154 31.592 475.616 33.004 475.69 34.662C475.764 36.325 477.039 37.732 478.76 37.732Z" fill="white"/>
<path d="M226.45 91.105H228.067C229.673 91.105 231.211 89.693 231.137 88.035C231.063 86.372 229.788 84.965 228.067 84.965H226.45C224.844 84.965 223.306 86.377 223.38 88.035C223.454 89.699 224.729 91.105 226.45 91.105Z" fill="white"/>
<path d="M271.73 274.11C271.344 274.125 272.269 274.21 272.246 274.205C271.889 274.117 272.758 274.443 272.721 274.425C272.362 274.245 273.312 274.956 273.095 274.72C272.89 274.497 273.574 275.387 273.407 275.128C273.14 274.714 273.664 275.915 273.53 275.424C273.397 274.938 273.564 276.33 273.568 275.694C273.568 275.678 273.578 275.492 273.577 275.492C273.592 275.495 273.438 276.363 273.516 276.012C273.64 275.451 273.226 276.56 273.38 276.299C273.565 275.985 273.032 276.729 273.06 276.699C273.334 276.403 272.465 277.109 272.679 276.984C272.925 276.84 271.915 277.272 272.196 277.192C272.432 277.124 271.281 277.259 271.725 277.274C273.332 277.33 274.868 275.822 274.795 274.204C274.718 272.492 273.446 271.194 271.725 271.134C269.206 271.046 267.424 273.317 267.429 275.696C267.434 278.069 269.208 280.351 271.731 280.253C273.334 280.191 274.877 278.885 274.801 277.183C274.728 275.571 273.449 274.044 271.73 274.11Z" fill="white"/>
<path d="M54.839 434.16V432.543C54.839 430.937 53.427 429.399 51.769 429.473C50.106 429.547 48.699 430.822 48.699 432.543V434.16C48.699 435.766 50.111 437.304 51.769 437.23C53.432 437.156 54.839 435.881 54.839 434.16Z" fill="white"/>
<path d="M162.3 566.23L160.683 564.613C159.546 563.476 157.463 563.391 156.341 564.613C155.216 565.839 155.127 567.741 156.341 568.955L157.958 570.572C159.095 571.709 161.178 571.794 162.3 570.572C163.425 569.347 163.513 567.444 162.3 566.23Z" fill="white"/>
<path d="M93.06 731.6C93.607 730.526 94.155 729.452 94.702 728.378C95.43 726.948 95.124 724.982 93.601 724.177C92.2 723.437 90.179 723.751 89.4 725.278C88.853 726.352 88.305 727.426 87.758 728.5C87.03 729.93 87.336 731.896 88.859 732.701C90.26 733.442 92.282 733.128 93.06 731.6Z" fill="white"/>
<path d="M294.93 868.68L293.313 867.063C292.176 865.926 290.093 865.841 288.971 867.063C287.846 868.289 287.757 870.191 288.971 871.405L290.588 873.022C291.725 874.159 293.808 874.244 294.93 873.022C296.055 871.796 296.143 869.893 294.93 868.68Z" fill="white"/>
<path d="M517.41 613.69V612.073C517.41 610.467 515.998 608.929 514.34 609.003C512.677 609.078 511.27 610.352 511.27 612.073V613.69C511.27 615.296 512.682 616.834 514.34 616.76C516.003 616.686 517.41 615.411 517.41 613.69Z" fill="white"/>
<path d="M663.14 636.16C667.091 636.16 667.098 630.02 663.14 630.02C659.189 630.019 659.183 636.16 663.14 636.16Z" fill="white"/>
<path d="M1230.3 100.78H1226.36C1222.41 100.78 1222.41 106.92 1226.36 106.92H1230.3C1234.25 106.92 1234.26 100.78 1230.3 100.78H1226.36C1222.41 100.78 1222.41 106.92 1226.36 106.92H1230.3C1234.25 106.92 1234.26 100.78 1230.3 100.78Z" fill="white"/>
<path d="M1481.3 65.696V59.337C1481.3 55.386 1475.16 55.379 1475.16 59.337V65.696C1475.16 69.647 1481.3 69.653 1481.3 65.696Z" fill="white"/>
<path d="M1339.2 189.36C1337.12 189.066 1335.04 188.773 1332.97 188.479C1331.33 188.247 1329.67 188.88 1329.19 190.623C1328.79 192.061 1329.68 194.166 1331.33 194.4C1333.41 194.693 1335.49 194.987 1337.57 195.28C1339.21 195.512 1340.86 194.879 1341.34 193.136C1341.74 191.698 1340.85 189.593 1339.2 189.36Z" fill="white"/>
<path d="M1588.5 74.225C1590.62 72.106 1592.74 69.986 1594.86 67.866C1597.66 65.068 1593.32 60.725 1590.52 63.524C1588.4 65.643 1586.28 67.763 1584.16 69.883C1581.36 72.681 1585.7 77.024 1588.5 74.225Z" fill="white"/>
<path opacity="0.11" d="M642.34 589.83C621.38 570.936 586.832 569.45 564.327 586.475C576.258 554.053 560.865 515.796 533.563 494.627C506.261 473.458 469.679 467.332 435.278 470.506C360.841 477.374 291.948 527.388 262.358 596.036C241.549 576.78 208.863 571.622 183.136 583.536C157.409 595.45 140.2 623.713 141.425 652.038L653.735 667.077C668.341 642.934 663.291 608.724 642.331 589.83H642.34Z" fill="white"/>
<path opacity="0.11" d="M2073.8 561.49C2053.91 550.392 2026.58 555.01 2011.43 572.028C2015.2 514.181 1962.48 461.198 1904.61 457.708C1846.74 454.218 1791.14 494.686 1769.29 548.382C1735.46 521.859 1677.82 537.359 1661.86 577.273C1650.89 559.106 1623.8 556.472 1605.25 566.79C1586.71 577.108 1575.25 596.6 1566.74 616.043L2097.6 620.096C2104.13 598.269 2093.7 572.589 2073.8 561.491L2073.8 561.49Z" fill="white"/>
<path opacity="0.11" d="M1889.2 236.05C1872.17 226.029 1849.03 227.666 1833.58 239.985C1829.87 190.402 1781.71 148.537 1732.09 151.761C1683.44 154.921 1645.52 193.422 1612.63 229.397C1598.74 206.643 1568.78 197.267 1542.55 202.054C1516.33 206.841 1493.61 223.405 1475.22 242.702C1467.07 230.561 1448.17 230.347 1435.92 238.331C1423.66 246.315 1416.47 259.912 1409.79 272.922L1912.78 286.583C1916.04 267.094 1906.23 246.072 1889.2 236.05H1889.2Z" fill="white"/>
<path opacity="0.11" d="M2540.6 352.63C2527.52 349.382 2513.52 354.558 2502.94 362.913C2510.73 339.091 2495.69 311.721 2473.11 300.841C2450.54 289.961 2423.02 293.41 2400.65 304.697C2378.27 315.985 2360.23 334.249 2343.91 353.272C2340 336.325 2318.06 329.088 2301.54 334.505C2285.01 339.922 2272.93 353.823 2261.72 367.12L2561.43 382.594C2564.42 369.45 2553.68 355.878 2540.6 352.63Z" fill="white"/>
<path opacity="0.11" d="M2695.1 724.84C2692.94 717.472 2685.72 710.977 2678.18 712.429C2672.5 713.522 2667.07 718.739 2661.77 716.423C2661.74 696.606 2659.75 673.165 2642.71 663.045C2626.17 653.217 2604.5 662.187 2590.23 675.097C2577.78 686.358 2568.01 700.571 2561.97 716.234C2551.11 706.592 2530.56 714.343 2528.78 728.751L2694.12 747.608C2695.69 740.092 2697.26 732.208 2695.09 724.84H2695.1Z" fill="white"/>
<path opacity="0.11" d="M732.02 230.99C713.726 224.114 690.773 235.989 685.817 254.894C680.946 215.484 671.881 169.835 636.347 152.114C607.076 137.513 570.451 149.225 545.652 170.555C520.853 191.885 504.702 221.232 486.578 248.461C485.2 250.532 483.617 252.737 481.228 253.431C475.741 255.024 472.061 248.199 468.079 244.102C459.445 235.216 443.393 238.944 435.361 248.378C427.329 257.812 425.17 270.756 423.315 283.007L751.035 279.413C759.758 261.924 750.309 237.87 732.016 230.994L732.02 230.99Z" fill="white"/>
<path d="M1106.9 737.47C1114.14 731.299 1123.07 724.705 1132.26 727.167C1137.34 728.529 1144.58 731.186 1149.54 737.479C1149.54 737.479 1162.96 727.479 1170.27 726.573C1177.58 725.667 1185.37 727.627 1190.84 732.553C1185.88 729.83 1179.7 730.949 1174.38 732.873C1164.52 736.434 1155.6 742.541 1148.71 750.439C1144.91 743.976 1140.58 737.052 1133.53 734.49C1124.68 731.273 1115.08 732.796 1106.9 737.47Z" fill="#812E52"/>
<path d="M1156.5 773.59C1163.74 767.419 1172.67 760.825 1181.85 763.287C1186.94 764.649 1194.18 767.306 1199.14 773.599C1199.14 773.599 1212.56 763.599 1219.87 762.693C1227.18 761.787 1234.97 763.747 1240.44 768.673C1235.48 765.95 1229.3 767.069 1223.98 768.993C1214.12 772.554 1205.2 778.661 1198.31 786.559C1194.51 780.096 1190.18 773.172 1183.13 770.61C1174.28 767.392 1164.68 768.915 1156.5 773.59Z" fill="#812E52"/>
<path d="M1396.6 875.92C1399.78 873.213 1403.69 870.32 1407.72 871.4C1409.95 871.997 1413.13 873.163 1415.31 875.924C1415.31 875.924 1421.19 871.537 1424.4 871.14C1427.61 870.743 1431.02 871.603 1433.42 873.764C1431.24 872.569 1428.54 873.061 1426.2 873.905C1421.88 875.467 1417.96 878.147 1414.94 881.611C1413.28 878.776 1411.37 875.738 1408.28 874.614C1404.4 873.201 1400.19 873.87 1396.6 875.92Z" fill="#812E52"/>
<path d="M1015 830.86C1011.66 806.304 1036.7 803.955 1041.66 810.248C1041.66 810.248 1057.97 794.693 1074.66 826.723C1056.64 813.644 1047.71 815.312 1040.82 823.209C1037.03 816.747 1027.01 812.71 1015 830.86Z" fill="#812E52"/>
<path d="M1325.4 761.78C1322.06 737.224 1347.27 738.525 1352.23 744.818C1352.23 744.818 1368.37 725.614 1385.06 757.643C1367.04 744.564 1358.11 746.232 1351.22 754.129C1347.43 747.666 1337.41 743.629 1325.4 761.78Z" fill="#812E52"/>
<path d="M1269.6 845.15C1269.19 829.679 1284.75 832.193 1287.4 836.435C1287.4 836.435 1298.73 825.605 1306.92 846.619C1296.62 837.28 1290.96 837.711 1286.15 842.148C1284.23 837.879 1278.28 834.695 1269.6 845.15Z" fill="#812E52"/>
<path d="M953.74 724.46C961.226 722.936 970.062 721.771 975.563 727.072C978.606 730.004 982.663 734.686 983.704 741.037C983.704 741.037 997.023 739.225 1002.51 741.428C1008 743.631 1012.71 748.035 1014.64 753.624C1012.21 749.781 1007.44 748.169 1002.95 747.452C994.638 746.125 985.994 746.949 978.083 749.822C977.925 743.804 977.57 737.254 973.614 732.715C968.644 727.013 961.305 724.353 953.74 724.46Z" fill="#812E52"/>
<path d="M1401.6 805.12C1405.08 801.298 1409.44 797.133 1414.57 797.832C1417.4 798.219 1421.49 799.156 1424.59 802.21C1424.59 802.21 1431.14 795.901 1435.02 794.913C1438.9 793.925 1443.23 794.45 1446.52 796.731C1443.66 795.602 1440.41 796.628 1437.67 798.029C1432.6 800.623 1428.2 804.525 1425.03 809.254C1422.54 806.029 1419.73 802.592 1415.76 801.693C1410.76 800.563 1405.69 802.041 1401.6 805.12Z" fill="#812E52"/>
<path d="M2278.7 669.78C2296.04 645.008 2329.23 594.359 2329.23 569.55C2329.23 535.964 2302 508.736 2268.42 508.736C2234.83 508.736 2207.6 535.963 2207.6 569.55C2207.6 594.363 2240.79 645.012 2258.13 669.78H2278.7Z" fill="#631F3D"/>
<path d="M2279.06 681.96H2257V696.319H2279.06V681.96Z" fill="#631F3D"/>
<path d="M2091.1 783.95C2103.15 766.735 2126.22 731.536 2126.22 714.292C2126.22 690.951 2107.29 672.029 2083.95 672.029C2060.61 672.029 2041.69 690.951 2041.69 714.292C2041.69 731.536 2064.75 766.735 2076.8 783.95H2091.1Z" fill="#812E52"/>
<path d="M2091.43 792.42H2076.1V802.399H2091.43V792.42Z" fill="#812E52"/>
<defs>
<linearGradient id="paint0_linear_4_240" x1="1425" y1="4.6407" x2="1425" y2="1804.6" gradientUnits="userSpaceOnUse">
<stop stop-color="#7C4A74"/>
<stop offset="1" stop-color="#FA798D"/>
</linearGradient>
</defs>
</svg>
