<svg width="2786" height="1581" viewBox="0 0 2786 1581" fill="none" xmlns="http://www.w3.org/2000/svg">
<path d="M-2.09705 1471.1C22.898 1421.88 68.27 1386.17 115.533 1357.64C321.903 1233.1 582.493 1221.06 815.253 1283.68C941.923 1317.75 1065.08 1374.09 1160.33 1464.28" fill="#672140"/>
<path d="M941.68 1328.4C1104.99 1392.35 1288.42 1361.02 1460.09 1325.11C1631.76 1289.2 1811.67 1249.77 1979.89 1299.38C2029.32 1313.96 2076.81 1336.07 2127.74 1343.92C2205.59 1355.93 2284.06 1333.77 2362.22 1323.97C2442.51 1313.9 2524.42 1316.96 2603.73 1332.99C2672.9 1346.98 2745.88 1375.44 2780.59 1436.88C2784.4 1443.62 2787.74 1451.67 2784.98 1458.9C2781.76 1467.32 2771.92 1470.77 2763.23 1473.17C2353.26 1586.05 1921.55 1592.04 1496.83 1571.19C1352.04 1564.08 1206.89 1553.88 1064.8 1525.17C1027.37 1517.61 988.837 1508.13 958.939 1484.37C929.043 1460.62 910.274 1418.69 924.464 1383.23" fill="#672140"/>
<path d="M282.02 1284.4C285.369 1277.12 288.717 1269.84 292.066 1262.56C292.563 1261.48 293.576 1260.19 294.653 1260.69C295.142 1260.92 295.398 1261.46 295.616 1261.95C298.236 1267.89 300.855 1273.82 303.475 1279.75C313.428 1258.51 324.354 1237.72 336.207 1217.47C343.397 1234.27 349.044 1251.73 353.054 1269.55C355.572 1264.36 358.091 1259.17 360.609 1253.97C360.91 1253.35 361.236 1252.7 361.81 1252.32C363.821 1250.97 365.957 1253.86 366.677 1256.17C367.702 1259.45 368.727 1262.73 369.752 1266.02C372.798 1259.41 375.844 1252.8 378.89 1246.19C381.736 1251.9 383.556 1258.12 384.236 1264.46" fill="#672140"/>
<path d="M626.39 1252.5C628.023 1247.59 630.875 1243.09 634.617 1239.51C636.72 1246.27 638.824 1253.02 640.927 1259.78C651.663 1241 663.885 1223.07 677.439 1206.21C681.949 1218.57 685.31 1231.36 687.464 1244.34C689.254 1240.29 691.834 1236.58 695.015 1233.5C696.113 1238.37 697.211 1243.25 698.308 1248.12C702.157 1244.91 706.006 1241.71 709.855 1238.5C713.241 1249.93 715.365 1261.74 716.178 1273.64C721.353 1266.5 726.528 1259.37 731.703 1252.23C734.974 1256.73 736.823 1262.24 736.924 1267.81C740.464 1264.96 744.003 1262.12 747.543 1259.28C750.361 1266.02 752.349 1273.11 753.449 1280.34" fill="#672140"/>
<path d="M905.54 1312.9C907.742 1305.14 910.733 1297.61 914.451 1290.46C914.976 1299.4 916.602 1308.29 919.28 1316.84C921.042 1312.07 923.399 1307.51 926.28 1303.32C930.66 1309.85 924.803 1320.8 931.001 1325.64C935.91 1309.15 942.201 1293.06 949.786 1277.61C950.669 1275.82 952.611 1273.71 954.261 1274.85C958.297 1297.44 961.119 1320.25 962.71 1343.14C966.747 1334.47 970.785 1325.81 974.822 1317.14C976.919 1326.07 978.439 1335.14 979.367 1344.27C982.622 1339.39 985.877 1334.5 989.132 1329.62C990.73 1336.63 991.292 1343.87 990.793 1351.04" fill="#672140"/>
<path d="M1497.3 1320.7L1514.11 1317.22C1511.02 1307.81 1507.35 1298.58 1503.1 1289.63C1500.36 1299.81 1498.42 1310.21 1497.3 1320.7Z" fill="#672140"/>
<path d="M1514.7 1318.9C1514.91 1318.24 1515.12 1317.58 1515.33 1316.93L1514.13 1317.18C1514.32 1317.75 1514.51 1318.32 1514.7 1318.9Z" fill="#672140"/>
<path d="M1569.4 1305.7L1585.14 1302.44C1583.7 1294.43 1581.36 1286.58 1578.17 1279.09C1575.14 1287.57 1572.11 1296.06 1569.07 1304.55C1564.92 1289.55 1559.69 1274.86 1553.43 1260.62C1551.16 1269.48 1549.06 1278.38 1547.12 1287.32C1543.55 1275.53 1539.47 1263.89 1534.89 1252.46C1528.73 1274.06 1522.19 1295.54 1515.29 1316.91L1546.86 1310.37L1567.98 1306.64C1568.04 1306.79 1568.1 1306.94 1568.17 1307.09C1568.23 1306.92 1568.29 1306.75 1568.35 1306.58L1569.58 1306.36C1569.52 1306.14 1569.46 1305.92 1569.4 1305.7Z" fill="#672140"/>
<path d="M1672.6 1265.6C1672.29 1260.78 1672.03 1255.32 1668.34 1252.2C1665.84 1258.74 1663.48 1265.33 1661.25 1271.96C1659.92 1262.28 1658.98 1252.55 1658.47 1242.79C1658.18 1237.21 1657.93 1231.31 1654.89 1226.61C1652.19 1239.86 1649.49 1253.12 1646.79 1266.37C1644.89 1260.07 1642.36 1254.02 1638.36 1248.83C1633.1 1265.13 1627.85 1281.44 1622.59 1297.74L1677.73 1292.08C1674.91 1283.52 1673.18 1274.59 1672.6 1265.6Z" fill="#672140"/>
<path d="M1716 1261.9C1715.83 1260.34 1714.9 1258.25 1713.42 1258.77C1712.67 1259.03 1712.33 1259.89 1712.08 1260.66C1709.04 1270.09 1705.99 1279.52 1702.94 1288.95C1699.76 1277.15 1696.57 1265.34 1693.39 1253.54C1689.44 1266.36 1685.5 1279.18 1681.55 1292.01L1718.7 1287.39C1717.8 1278.9 1716.9 1270.4 1716 1261.9Z" fill="#672140"/>
<path d="M1825.3 1285.7C1825.65 1284.44 1826.01 1283.18 1826.38 1281.92L1824.76 1281.83C1824.92 1283.12 1825.09 1284.41 1825.3 1285.7Z" fill="#672140"/>
<path d="M1821.7 1204.2C1813.38 1229.56 1805.07 1254.92 1796.75 1280.29L1824.78 1281.84C1821.45 1256.17 1825.87 1229.79 1821.7 1204.2Z" fill="#672140"/>
<path d="M1849.2 1255.4C1845.46 1262.69 1842.41 1270.32 1840.09 1278.18C1838.47 1268.36 1837.93 1258.35 1838.5 1248.42C1833.78 1259.29 1829.75 1270.46 1826.45 1281.85L1851.98 1283.26C1852.14 1273.91 1851.2 1264.54 1849.2 1255.4Z" fill="#672140"/>
<path d="M1795.8 1251.6C1795.57 1243.81 1795.27 1235.75 1791.81 1228.77C1785.6 1243.14 1779.39 1257.52 1773.18 1271.89C1772.14 1266.81 1771.11 1261.74 1770.07 1256.66C1766.06 1263.98 1763.17 1271.91 1761.51 1280.09L1769.41 1280.61C1769.24 1281.01 1769.06 1281.42 1768.89 1281.82L1795.04 1282.39C1795.32 1282.56 1795.62 1282.7 1795.96 1282.77C1796 1282.65 1796.04 1282.53 1796.08 1282.41L1796.71 1282.42C1796.7 1281.83 1796.68 1281.23 1796.66 1280.64C1796.71 1280.5 1796.75 1280.36 1796.8 1280.21L1796.65 1280.2C1796.37 1270.67 1796.08 1261.13 1795.8 1251.6V1251.6Z" fill="#672140"/>
</svg>
