<svg width="2850" height="957" viewBox="0 0 2850 957" fill="none" xmlns="http://www.w3.org/2000/svg">
<path d="M960.24 957C889.818 902.909 819.4 819 748.97 764.91C741.573 759.228 734.01 753.455 725.206 750.376C716.568 747.355 707.246 747.106 698.099 746.842C630.639 744.891 563.249 740.441 496.119 733.504C464.087 730.194 387.719 717.951 387.719 717.951C308.314 589.321 215.119 436.241 135.719 307.611C115.434 274.75 94.152 240.84 61.93 219.555C43.326 207.265 21.933 199.861 -0.00500488 195.515V956.995L960.24 957Z" fill="#531331"/>
<path d="M2788.1 219.6C2755.88 240.885 2734.6 274.795 2714.31 307.656C2698.68 332.981 2566.84 585.566 2566.84 585.566C2566.84 585.566 2133.46 747.406 2124.83 750.426C2116.03 753.505 2108.46 759.278 2101.07 764.96C2070.97 788.074 2058.92 797.51 2029.79 825.934L2033.82 957.044H2850.04V195.564C2828.1 199.91 2806.71 207.314 2788.1 219.603L2788.1 219.6Z" fill="#531331"/>
<path d="M2055.4 806.4C2051.34 802.774 2045.7 801.329 2040.26 801.341C2034.82 801.353 2029.48 802.686 2024.2 804.011C2032.94 799.709 2042.3 796.684 2051.91 795.062C2045.94 784.449 2033.96 778.991 2022.76 774.211C2035.87 774.029 2049.01 777.84 2059.98 785.01C2057.94 777.662 2054.81 770.619 2050.73 764.182C2061.95 771.299 2071.38 781.203 2077.95 792.753" fill="#531331"/>
<path d="M2108.8 765.5C2101.85 764.985 2095.98 758.257 2096.41 751.306C2096.83 744.355 2103.49 738.397 2110.44 738.736C2106.88 730.476 2106.71 720.235 2112.09 713.027C2117.48 705.819 2129.15 703.417 2135.78 709.502C2137.21 697.511 2143.22 686.124 2152.32 678.182C2155.29 675.585 2158.66 673.309 2162.47 672.283C2167 671.063 2171.86 671.694 2176.32 673.157C2185.97 676.324 2194.25 683.476 2198.78 692.566C2203.31 701.656 2204.04 712.569 2200.76 722.183C2199.74 725.185 2198.31 728.104 2196.15 730.421C2194.17 732.538 2191.66 734.07 2189.16 735.532C2164.48 749.951 2137.32 760.103 2109.23 765.404" fill="#531331"/>
<path d="M788.28 813.6C788.028 797.975 812.362 748.273 809.731 735.801C807.48 725.129 803.495 714.903 800.744 704.348C795.428 683.951 794.793 662.667 794.188 641.597C797.157 641.07 800.126 640.542 803.096 640.015C798.858 669.449 808.101 700.555 827.725 722.899C829.876 711.212 836.265 700.353 845.435 692.795C850.219 688.852 855.685 685.812 860.546 681.965C871.08 673.629 878.521 661.47 881.148 648.296C883.692 649.575 886.236 650.853 888.78 652.132C878.827 666.136 873.643 683.472 861.666 695.791C856.827 700.768 850.98 704.803 846.867 710.394C840.595 718.919 811.696 792.337 808.403 819.284" fill="#531331"/>
<path d="M808.32 653C797.824 656.956 786.243 657.988 775.213 655.952C769.089 654.821 762.986 652.675 758.278 648.598C753.57 644.521 750.455 638.265 751.282 632.092C752.641 621.943 763.823 615.762 774.056 615.404C764.415 613.99 756.727 606.258 752.306 597.575C743.766 580.803 746.546 557.677 761.716 546.536C770.995 539.722 783.121 538.196 794.633 538.307C806.145 538.417 817.729 539.929 829.12 538.264C827.332 531.999 829.255 524.82 833.934 520.286C838.614 515.753 845.85 514.059 852.055 516.046C851.988 508.576 853.966 501.097 857.717 494.637C858.894 492.61 860.324 490.607 862.402 489.523C864.397 488.483 866.741 488.415 868.991 488.429C884.195 488.524 899.378 491.328 913.613 496.67C918.325 498.439 923.075 500.58 926.499 504.269C932.262 510.479 933.119 520.044 930.815 528.197C928.512 536.35 923.527 543.439 918.629 550.352C925.996 549.517 933.648 554.049 936.457 560.911C939.266 567.773 936.985 576.37 931.146 580.939C945.157 589.17 958.843 600.893 961.802 616.871C965.3 635.762 951.332 655.081 933.172 661.35C915.011 667.62 894.375 662.663 878.263 652.197C861.587 666.417 836.444 669.801 816.602 660.496C813.147 658.876 809.437 656.251 809.339 652.436" fill="#531331"/>
<path d="M742.38 751.4C751.78 733.626 754.674 712.501 750.402 692.854C759.224 699.089 764.653 709.241 767.285 719.719C769.917 730.197 770.036 741.119 770.14 751.922C779.5 743.802 787.3 733.89 792.993 722.884C793.541 740.685 786.551 758.597 774.091 771.321C782.375 769.616 790.808 768.635 799.263 768.393C791.962 774.096 784.66 779.8 777.359 785.503L726.444 782.79C733.636 777.174 736.889 767.534 736.431 758.42C735.973 749.306 732.239 740.648 727.572 732.807C734.764 736.634 740.258 743.532 742.38 751.4Z" fill="#531331"/>
<path d="M838.07 830.3C847.559 820.105 860.721 813.404 874.547 811.728C868.46 807.375 860.583 806.134 853.129 806.797C845.675 807.46 838.502 809.868 831.411 812.258C834.593 804.287 839.302 796.928 845.208 790.699C833.437 794.392 823.31 803.041 817.821 814.089C817.051 808.281 815.774 802.541 814.008 796.955C811.938 803.03 809.869 809.105 807.799 815.179L821.161 847.871C823.198 841.887 828.765 837.566 834.831 835.791C840.898 834.016 847.412 834.489 853.604 835.758C849.463 831.922 843.7 829.898 838.07 830.3Z" fill="#531331"/>
<path d="M205.41 123.84C203.861 121.783 201.804 120.084 200.649 117.782C199.494 115.481 199.64 112.178 201.867 110.886C203.524 109.925 206.086 110.147 206.849 108.389C207.159 107.674 207.026 106.852 206.866 106.089C205.023 97.321 200.551 89.782 195.123 82.663C197.002 80.214 198.337 77.375 198.781 74.331C200.052 65.61 192.686 56.625 183.886 56.159C188.156 52.474 189.886 46.456 189.456 40.833C189.027 35.209 186.697 29.903 183.962 24.971C181.286 20.144 178.154 15.507 174.117 11.744C166.879 4.99501 157.068 1.43897 147.218 0.484973C138.454 -0.364027 129.619 0.719976 120.998 2.58898C115.874 3.39898 110.805 4.59501 105.843 6.11101C100.514 7.73901 95.172 9.795 90.955 13.437C86.738 17.079 83.789 22.587 84.462 28.118C76.084 24.253 65.771 27.518 58.972 33.755C54.6 37.766 51.205 43.235 51.075 49.166C51.047 50.436 51.178 51.691 51.433 52.919C47.657 53.692 43.659 53.427 39.793 53.871C35.077 54.413 29.905 56.655 28.534 61.2C27.85 63.468 28.25 65.906 28.687 68.235C30.121 75.89 31.924 83.565 35.394 90.537C38.864 97.51 44.157 103.795 51.149 107.227C61.968 112.537 74.738 110.33 86.788 110.576C88.054 110.602 89.371 110.67 90.481 111.279C91.923 112.07 92.749 113.615 93.592 115.027C96.434 119.79 100.605 124.081 105.955 125.542C111.425 127.035 117.189 125.394 122.839 124.908C124.223 124.789 125.658 124.747 126.956 125.241C129.044 126.035 130.375 128.032 131.717 129.817C143.638 145.666 165.194 151.205 185.02 150.692C191.377 150.528 198.155 149.679 203 145.561C209.115 140.362 210.237 130.254 205.41 123.84Z" fill="#531331"/>
<path d="M98.8 189.1C98.873 188.911 128.886 128.336 128.886 128.336C129.291 122.497 129.403 115.074 129.158 107.352C120.975 120.916 113.042 134.772 102.69 146.664C103.653 119.525 108.198 92.964 113.238 66.482C105.322 75.635 94.031 107.375 78.406 179.932C74.549 197.844 60.537 234.992 54.217 252.19L81.127 246.679C85.652 227.101 91.563 207.842 98.8 189.096V189.1Z" fill="#531331"/>
<path d="M96.672 251.8C101.32 242.428 109.36 234.785 118.954 230.617C113.64 228.787 107.703 229.581 102.479 231.654C97.255 233.727 92.607 236.997 88.014 240.237C88.598 233.817 90.412 227.51 93.329 221.761C85.646 226.941 80.208 235.336 78.622 244.465C76.824 240.449 74.675 236.59 72.207 232.946C72.018 237.763 71.829 242.579 71.64 247.396L88.262 268.07C88.447 263.326 91.529 259.023 95.516 256.446C99.503 253.869 104.294 252.814 109.024 252.401C105.222 250.527 100.639 250.304 96.672 251.8Z" fill="#531331"/>
<path d="M2145.5 578C2138.22 568.977 2126.46 563.763 2114.89 564.43C2119.47 561.174 2123.7 557.43 2127.49 553.283C2128.77 551.872 2130.07 550.282 2130.24 548.379C2130.5 545.545 2128.22 543.173 2126.04 541.342C2107.25 525.548 2081.88 517.828 2057.48 520.473C2059.15 515.841 2057.25 510.244 2053.28 507.402C2051.27 501.95 2047.12 497.028 2042.13 493.927C2033.36 488.474 2022.69 487.291 2012.41 486.24C2008.67 485.857 2004.83 485.48 2001.19 486.428C1997.11 487.488 1993.63 490.113 1990.4 492.82C1982.96 499.057 1976.16 506.06 1970.15 513.682C1967.48 517.061 1964.91 520.678 1963.89 524.86C1962.87 529.042 1963.71 533.933 1966.99 536.724C1969.89 539.199 1974.98 541.273 1973.77 544.891C1973.42 545.925 1972.57 546.696 1971.75 547.418C1961.19 556.747 1950.63 566.077 1940.07 575.406C1934.8 580.064 1929.26 585.153 1927.57 591.982C1925.88 598.811 1930.22 607.524 1937.25 607.523C1930.58 608.818 1924.17 611.44 1918.5 615.19C1916.75 616.347 1915.02 617.668 1914.01 619.502C1912.99 621.333 1912.79 623.5 1912.8 625.594C1912.83 640.949 1923.47 655.153 1937.39 661.643C1951.3 668.133 1967.81 667.589 1982.3 662.487C1996.78 657.385 2009.44 648.063 2020.6 637.521C2021.55 636.626 2022.6 635.671 2023.89 635.553C2025.67 635.392 2027.13 636.814 2028.49 637.958C2034.38 642.905 2043.27 643.939 2050.14 640.476C2057.01 637.013 2061.47 629.253 2061 621.574C2073.72 628.487 2089.03 629.997 2103.2 626.98C2117.36 623.963 2130.4 616.623 2141.28 607.058C2145.66 603.209 2149.93 598.56 2150.68 592.78C2151.37 587.46 2148.87 582.178 2145.5 578Z" fill="#531331"/>
<path d="M2073.2 715.1C2071.39 711.712 2069.35 708.381 2068.39 704.663C2067.33 700.602 2067.63 696.329 2067.93 692.145C2069.76 667.315 2071.82 642.503 2074.12 617.713L2061.17 612.098C2057.8 634.586 2054.43 657.074 2051.05 679.562C2050.53 679.374 2049.94 679.326 2049.37 679.295C2037.06 678.627 2024.77 677.659 2012.51 676.393C2011.14 676.252 2009.7 676.081 2008.58 675.277C2007.37 674.406 2006.76 672.95 2006.2 671.569L1992.29 637.228L1987.83 637.428C1991.52 653.893 1995.8 670.226 2000.67 686.383C2000.9 687.139 2001.14 687.918 2001.64 688.525C2002.87 690.001 2005.1 689.958 2007.01 689.825C2021.09 688.846 2035.29 689.849 2049.1 692.757C2048.86 694.628 2048.71 696.508 2048.91 698.379C2049.17 700.808 2049.99 703.136 2050.8 705.438L2079.15 785.448C2086.42 784.645 2093.49 782.112 2099.62 778.118C2093.53 763.167 2087.44 748.217 2081.35 733.266C2078.84 727.117 2076.33 720.955 2073.2 715.1Z" fill="#531331"/>
</svg>
