<svg width="2850" height="599" viewBox="0 0 2850 599" fill="none" xmlns="http://www.w3.org/2000/svg">
<path d="M2304.2 56.44C2217.98 87.69 2138.07 170.28 2079.19 176.98C2020.31 183.676 1986.66 98.855 1898.34 127.873C1810.02 156.891 1555.57 308.673 1412.58 315.373C1269.59 322.073 827.98 25.193 731.25 2.873C650.719 -15.71 416.99 74.394 340.95 105.103L340.936 104.516C305.694 118.223 269.911 130.55 233.696 141.459C195.969 152.824 154.909 162.574 117.816 149.308C72.655 133.157 44.523 86.843 0.755981 67.265V598.855H2850.06V315.485C2850.06 315.485 2390.45 25.195 2304.23 56.445L2304.2 56.44Z" fill="#812E52"/>
<path d="M143.82 155.04C134.995 154.159 126.289 152.34 117.793 149.301C72.632 133.15 44.5 86.836 0.733032 67.258V99.753C44.505 119.331 72.636 165.645 117.793 181.796C126.29 184.835 273.203 194.847 282.023 195.728L143.82 155.04Z" fill="#B34070"/>
<path d="M1898.3 127.86C1809.98 156.878 1555.53 308.66 1412.54 315.36C1270.16 322.028 831.75 27.74 732.49 3.17999C732.49 3.17999 1291.06 399.92 1433.44 393.25C1576.44 386.554 1772.89 229.23 1852.81 181.73C1875.93 167.991 1938.56 121.914 1938.56 121.914C1926.43 121.337 1913.14 122.988 1898.3 127.863L1898.3 127.86Z" fill="#B34070"/>
<path d="M2304.2 56.44C2222.37 86.099 2146.23 161.99 2088.35 175.37C2088.35 175.37 2182.6 154.491 2255.69 107.229C2273.59 95.654 2313.05 54.474 2313.05 54.474C2309.78 54.848 2306.82 55.493 2304.2 56.44H2304.2Z" fill="#B34070"/>
</svg>
