<svg width="2850" height="404" viewBox="0 0 2850 404" fill="none" xmlns="http://www.w3.org/2000/svg">
<path d="M2850 0.800049H0V403.95H2850V0.800049Z" fill="#FA798D"/>
<path opacity="0.5625" d="M1240.5 226.4C1182.87 247.778 1123.28 263.896 1062.73 274.501C1049.61 276.799 1045.98 293.797 1056.98 301.297C1067.57 308.51 1080.37 313.207 1092.94 315.994C1115.63 321.025 1139.36 321.546 1161.31 329.179C1171.04 332.561 1181.56 339.096 1182.29 349.368C1108.39 377.845 1027.77 382.707 951.506 403.995L1763.36 402.958C1760.11 395.754 1752.44 389.268 1745.02 385.461C1673.1 348.532 1579.92 375.201 1509.85 334.851C1550.77 323.866 1591.69 312.881 1632.6 301.895C1641.72 299.448 1652.77 294.654 1652.87 285.217C1652.98 275.218 1640.83 270.436 1631.03 268.464C1564.13 255.002 1496.55 244.954 1428.62 238.37C1472.49 229.986 1516.36 221.603 1560.24 213.219C1569.17 211.512 1580.67 206.123 1578.48 197.294C1576.8 190.503 1568.2 188.654 1561.24 187.972C1514.39 183.387 1468.15 172.596 1424.12 155.969C1441.02 139.871 1470.65 140.499 1490.86 131.252C1500.04 127.048 1497.1 113.252 1486.99 113.033C1452.16 112.277 1417.33 111.521 1382.5 110.765C1375.4 110.611 1365.77 107.952 1367.17 100.357C1367.76 97.1981 1370.15 94.673 1373.18 93.604C1397.18 85.136 1421.19 76.6691 1445.19 68.201C1448.96 66.873 1451.56 63.217 1451.19 59.243C1450.77 54.631 1446.82 53.387 1443.3 52.436C1427.92 48.29 1412.54 44.145 1397.16 39.999C1397.38 33.493 1403.06 28.761 1407.29 23.813C1412.49 17.73 1415.46 6.67796 1404.61 4.23596C1403.24 3.92796 1401.83 3.83796 1400.42 3.88696C1375.7 4.74796 1375.41 3.50504 1382.94 0.842041H1319.1C1316.37 3.53704 1296.12 3.00597 1295.54 5.81897C1294.42 11.306 1309.1 20.596 1303.42 22.05C1291.13 25.195 1275.89 28.4371 1269.68 31.3831C1267.22 32.5521 1264.62 33.8461 1263.21 36.1851C1257.15 46.3011 1279 53.693 1278.47 65.474C1278.12 73.458 1268.16 76.6619 1260.24 77.7679C1249.44 79.2789 1238.63 80.789 1227.83 82.3C1215.94 83.962 1200.39 89.69 1204.68 103.259C1207.29 111.507 1215.76 116.199 1224.32 115.005C1235.56 113.439 1257.69 122.26 1251.12 135.507C1249.82 138.131 1247.62 140.21 1244.99 141.509C1223.92 151.935 1200.9 158.404 1177.49 160.501C1166.18 161.513 1150.72 166.043 1152.45 177.259C1154.02 187.371 1167.82 188.58 1178.05 188.515C1202.42 188.361 1226.79 196.035 1246.65 210.182C1248.41 211.436 1249.73 213.269 1250.21 215.377C1251.56 221.294 1245.54 224.529 1240.49 226.4H1240.5Z" fill="white"/>
<path opacity="0.5625" d="M1477.7 87.9C1464.23 86.613 1450.66 87.561 1437.17 88.509H1437.05C1433.27 88.709 1433.3 94.374 1437.08 94.633C1438.87 94.756 1440.67 94.806 1442.46 94.839C1454.42 95.06 1466.59 94.5799 1478.05 91.3709C1479.94 90.8409 1479.72 88.0899 1477.77 87.9019C1477.74 87.9019 1477.72 87.8919 1477.7 87.8919V87.9Z" fill="white"/>
<path opacity="0.5625" d="M1443.1 28C1442.98 27.671 1442.59 27.544 1442.25 27.464C1434.31 25.596 1428.43 25.538 1420.58 27.267C1417.44 27.871 1414.09 28.8669 1413.32 30.2629C1413.17 30.5429 1413.05 30.902 1413.23 31.171C1413.38 31.414 1413.71 31.473 1414 31.51C1422.34 32.573 1431.02 33.6049 1438.99 30.9079C1440.3 30.4649 1441.6 29.908 1442.64 29.001C1442.93 28.743 1443.23 28.368 1443.1 28Z" fill="white"/>
<path opacity="0.5625" d="M1626 118.6C1623.17 117.04 1619.21 114.815 1615.98 114.731C1600.57 113.911 1584.97 116.908 1570.96 123.382C1570.28 123.698 1569.49 124.183 1569.51 124.935C1569.53 125.764 1570.49 126.191 1571.29 126.412C1583.88 129.896 1597.03 131.325 1610.08 130.624C1616.06 130.303 1622.39 129.382 1626.98 125.529C1627.98 124.686 1628.94 123.578 1628.93 122.268C1628.92 120.623 1627.44 119.394 1626 118.6Z" fill="white"/>
<path opacity="0.5625" d="M1700.9 249.3C1700.65 248.041 1699.56 247.137 1698.49 246.427C1692.5 242.455 1685.13 241.305 1677.98 240.517C1655.57 238.041 1620.74 237.928 1598.35 240.654H1598.59C1597.59 240.756 1596.59 240.857 1595.59 240.996C1594.53 241.143 1593.42 241.339 1592.62 242.045C1591.04 243.437 1591.56 246.196 1593.11 247.617C1594.66 249.038 1596.85 249.471 1598.92 249.83C1630.41 255.279 1662.59 256.705 1694.44 254.063C1697.47 253.812 1701.5 252.286 1700.9 249.305V249.3Z" fill="white"/>
<path opacity="0.5625" d="M1240.2 40.7C1238.2 38.709 1237.49 38.363 1235.79 37.736C1226.19 35.656 1216.18 35.484 1206.52 37.233C1204.66 37.569 1202.6 38.127 1201.66 39.767C1200.65 41.54 1201.48 43.918 1203.03 45.247C1204.58 46.576 1206.66 47.085 1208.67 47.444C1218.7 49.238 1229.21 48.292 1238.77 44.735C1239.85 44.332 1241.1 43.6531 1241.13 42.4981C1241.15 41.8051 1240.69 41.19 1240.2 40.7Z" fill="white"/>
<path opacity="0.5625" d="M1125.2 175.1L1125.19 175.099C1125.08 175.083 1124.97 175.068 1124.85 175.071C1102.18 173.13 1080.36 171.554 1058.09 176.302C1056.43 176.656 1054.62 177.126 1053.64 178.51C1052.25 180.455 1053.28 183.358 1055.19 184.785C1057.11 186.212 1059.6 186.539 1061.98 186.777C1081.55 188.736 1101.41 187.787 1120.7 183.97C1123.48 183.421 1126.62 182.523 1127.81 179.952C1128.71 177.985 1126.99 175.366 1125.2 175.1H1125.2Z" fill="white"/>
<path opacity="0.5625" d="M1127 235C1126.53 234.293 1125.64 234.022 1124.81 233.84C1120.27 232.842 1117.52 233.435 1112.56 233.319L1113.3 233.35C1107.71 233.078 1102.09 233.532 1096.61 234.698C1094.39 235.172 1091.83 236.085 1091.2 238.27C1090.25 241.524 1094.27 243.942 1097.6 244.583C1106.94 246.38 1116.94 244.429 1124.91 239.256C1126.4 238.295 1127.98 236.473 1127 235Z" fill="white"/>
<path opacity="0.5625" d="M962.5 353.5C955.525 354.313 947.855 355.509 943.509 361.162C942.963 361.872 942.568 362.72 942.568 363.616C942.569 366.166 945.317 367.075 947.59 367.42C959.469 369.226 971.59 367.897 983.476 366.136C1011.43 361.996 1039.03 355.48 1065.88 346.68C1066.45 346.493 1066.89 346.027 1067.04 345.445C1067.35 344.266 1066.41 343.135 1065.19 343.238C1036.77 345.643 989.694 350.33 962.502 353.5H962.5Z" fill="white"/>
<path opacity="0.42" d="M739.47 70.9H824.2" stroke="white" stroke-width="4" stroke-miterlimit="10" stroke-linecap="round"/>
<path opacity="0.42" d="M937.64 70.9H1258.5" stroke="white" stroke-width="4" stroke-miterlimit="10" stroke-linecap="round"/>
<path opacity="0.42" d="M1404.3 70.9H1517.3" stroke="white" stroke-width="4" stroke-miterlimit="10" stroke-linecap="round"/>
<path opacity="0.42" d="M1686.7 70.9H1882.9" stroke="white" stroke-width="4" stroke-miterlimit="10" stroke-linecap="round"/>
<path opacity="0.42" d="M2094.1 70.9H2217.5" stroke="white" stroke-width="4" stroke-miterlimit="10" stroke-linecap="round"/>
<path opacity="0.42" d="M2297.7 70.9H2336.3" stroke="white" stroke-width="4" stroke-miterlimit="10" stroke-linecap="round"/>
<path opacity="0.42" d="M373.95 70.9H412.54" stroke="white" stroke-width="4" stroke-miterlimit="10" stroke-linecap="round"/>
<path opacity="0.42" d="M500.17 70.9H638.79" stroke="white" stroke-width="4" stroke-miterlimit="10" stroke-linecap="round"/>
<path opacity="0.42" d="M595.09 108.7H722.23" stroke="white" stroke-width="4" stroke-miterlimit="10" stroke-linecap="round"/>
<path opacity="0.42" d="M980.01 108.7H1009.7" stroke="white" stroke-width="4" stroke-miterlimit="10" stroke-linecap="round"/>
<path opacity="0.42" d="M1247.6 108.7H1331.6" stroke="white" stroke-width="4" stroke-miterlimit="10" stroke-linecap="round"/>
<path opacity="0.42" d="M1071.8 361.3H1101.5" stroke="white" stroke-width="4" stroke-miterlimit="10" stroke-linecap="round"/>
<path opacity="0.42" d="M1339.4 361.3H1423.4" stroke="white" stroke-width="4" stroke-miterlimit="10" stroke-linecap="round"/>
<path opacity="0.42" d="M1499.5 108.7H1535.1" stroke="white" stroke-width="4" stroke-miterlimit="10" stroke-linecap="round"/>
<path opacity="0.42" d="M1837.2 108.7H1977.9" stroke="white" stroke-width="4" stroke-miterlimit="10" stroke-linecap="round"/>
<path opacity="0.42" d="M2155.8 108.7H2190.4" stroke="white" stroke-width="4" stroke-miterlimit="10" stroke-linecap="round"/>
<path opacity="0.42" d="M710.7 146.6H739.47" stroke="white" stroke-width="4" stroke-miterlimit="10" stroke-linecap="round"/>
<path opacity="0.42" d="M796.45 146.6H890.25" stroke="white" stroke-width="4" stroke-miterlimit="10" stroke-linecap="round"/>
<path opacity="0.42" d="M1103.3 146.6H1142.6" stroke="white" stroke-width="4" stroke-miterlimit="10" stroke-linecap="round"/>
<path opacity="0.42" d="M1458.1 146.6H1590.9" stroke="white" stroke-width="4" stroke-miterlimit="10" stroke-linecap="round"/>
<path opacity="0.42" d="M1718.4 146.6H1745.9" stroke="white" stroke-width="4" stroke-miterlimit="10" stroke-linecap="round"/>
<path opacity="0.42" d="M1943.7 146.6H2012.1" stroke="white" stroke-width="4" stroke-miterlimit="10" stroke-linecap="round"/>
<path opacity="0.42" d="M739.47 184.5H801.39" stroke="white" stroke-width="4" stroke-miterlimit="10" stroke-linecap="round"/>
<path opacity="0.42" d="M1576.4 184.5H1662.2" stroke="white" stroke-width="4" stroke-miterlimit="10" stroke-linecap="round"/>
<path opacity="0.42" d="M1837.2 184.5H1872.9" stroke="white" stroke-width="4" stroke-miterlimit="10" stroke-linecap="round"/>
<path opacity="0.42" d="M1430.3 184.5H1466.1" stroke="white" stroke-width="4" stroke-miterlimit="10" stroke-linecap="round"/>
<path opacity="0.42" d="M1054.5 184.5H1336.1" stroke="white" stroke-width="4" stroke-miterlimit="10" stroke-linecap="round"/>
<path opacity="0.42" d="M1040.6 307.1H954.66" stroke="white" stroke-width="4" stroke-miterlimit="10" stroke-linecap="round"/>
<path opacity="0.42" d="M1186.6 307.1H1150.8" stroke="white" stroke-width="4" stroke-miterlimit="10" stroke-linecap="round"/>
<path opacity="0.42" d="M1562.4 307.1H1280.8" stroke="white" stroke-width="4" stroke-miterlimit="10" stroke-linecap="round"/>
<path opacity="0.42" d="M869.41 222.4H1070.1" stroke="white" stroke-width="4" stroke-miterlimit="10" stroke-linecap="round"/>
<path opacity="0.42" d="M1130.2 222.4H1197.1" stroke="white" stroke-width="4" stroke-miterlimit="10" stroke-linecap="round"/>
<path opacity="0.42" d="M1722.9 222.4H1739.1" stroke="white" stroke-width="4" stroke-miterlimit="10" stroke-linecap="round"/>
<path opacity="0.42" d="M1293.9 222.4H1602.4" stroke="white" stroke-width="4" stroke-miterlimit="10" stroke-linecap="round"/>
<path opacity="0.42" d="M1011.3 260.2H1336.1" stroke="white" stroke-width="4" stroke-miterlimit="10" stroke-linecap="round"/>
<path opacity="0.42" d="M1390.2 260.2H1458.1" stroke="white" stroke-width="4" stroke-miterlimit="10" stroke-linecap="round"/>
<path opacity="0.42" d="M1579.4 260.2H1602.4" stroke="white" stroke-width="4" stroke-miterlimit="10" stroke-linecap="round"/>
</svg>
